<svg width="24" height="24" viewBox="0 0 24 24" fill="none" xmlns="http://www.w3.org/2000/svg">
  <circle cx="12" cy="12" r="11.5" fill="#AEFFC6" stroke="#003049"/>
  <path fill-rule="evenodd" clip-rule="evenodd" d="M5.71094 8.8418V7.26953C5.71094 6.41012 6.41013 5.71094 7.26953 5.71094H8.8418C9.03811 5.71094 9.19727 5.55178 9.19727 5.35547C9.19727 5.15915 9.03811 5 8.8418 5H7.26953C6.01812 5 5 6.0181 5 7.26953V8.8418C5 9.03811 5.15915 9.19727 5.35547 9.19727C5.55178 9.19727 5.71094 9.03811 5.71094 8.8418ZM8.8418 18.2891C9.03811 18.2891 9.19727 18.4482 9.19727 18.6445C9.19727 18.8408 9.03811 19 8.8418 19H7.26953C6.01812 19 5 17.9819 5 16.7305V15.1582C5 14.9619 5.15915 14.8027 5.35547 14.8027C5.55178 14.8027 5.71094 14.9619 5.71094 15.1582V16.7305C5.71094 17.5899 6.41013 18.2891 7.26953 18.2891H8.8418ZM19 15.1582V16.7305C19 17.9819 17.9819 19 16.7305 19H15.1582C14.9619 19 14.8027 18.8408 14.8027 18.6445C14.8027 18.4482 14.9619 18.2891 15.1582 18.2891H16.7305C17.5899 18.2891 18.2891 17.5899 18.2891 16.7305V15.1582C18.2891 14.9619 18.4482 14.8027 18.6445 14.8027C18.8408 14.8027 19 14.9619 19 15.1582ZM19 7.26953V8.8418C19 9.03811 18.8408 9.19727 18.6445 9.19727C18.4482 9.19727 18.2891 9.03811 18.2891 8.8418V7.26953C18.2891 6.41012 17.5899 5.71094 16.7305 5.71094H15.1582C14.9619 5.71094 14.8027 5.55178 14.8027 5.35547C14.8027 5.15915 14.9619 5 15.1582 5H16.7305C17.9819 5 19 6.0181 19 7.26953ZM14.4531 15.3473C14.6029 15.209 14.6121 14.9755 14.4738 14.8257C14.3354 14.6759 14.1019 14.6667 13.9521 14.805C13.4193 15.2972 12.726 15.5683 12 15.5683C11.274 15.5683 10.5807 15.2972 10.0478 14.805C9.898 14.6667 9.6645 14.676 9.52615 14.8257C9.38782 14.9755 9.39708 15.209 9.54684 15.3473C10.2166 15.9659 11.0877 16.3066 12 16.3066C12.9122 16.3066 13.7834 15.9659 14.4531 15.3473ZM12.7383 10.2773V12.9023C12.7383 13.4225 12.3151 13.8457 11.7949 13.8457H11.4941C11.2903 13.8457 11.125 13.6804 11.125 13.4766C11.125 13.2727 11.2903 13.1074 11.4941 13.1074H11.7949C11.908 13.1074 12 13.0154 12 12.9023V10.2773C12 10.0735 12.1653 9.9082 12.3691 9.9082C12.573 9.9082 12.7383 10.0735 12.7383 10.2773ZM15.2812 11.3096V10.2568C15.2812 10.0643 15.1252 9.9082 14.9326 9.9082C14.7401 9.9082 14.584 10.0643 14.584 10.2568V11.3096C14.584 11.5021 14.7401 11.6582 14.9326 11.6582C15.1252 11.6582 15.2812 11.5021 15.2812 11.3096ZM8.80078 11.3096C8.80078 11.5021 8.95687 11.6582 9.14941 11.6582C9.34196 11.6582 9.49805 11.5021 9.49805 11.3096V10.2568C9.49805 10.0643 9.34196 9.9082 9.14941 9.9082C8.95687 9.9082 8.80078 10.0643 8.80078 10.2568V11.3096Z" fill="#003049"/>
  </svg>
  