<svg width="341" height="54" viewBox="0 0 341 54" fill="none" xmlns="http://www.w3.org/2000/svg">
<mask id="mask0_1259_771" style="mask-type:alpha" maskUnits="userSpaceOnUse" x="0" y="0" width="341" height="54">
<rect x="0.5" width="340" height="54" fill="#C4C4C4"/>
</mask>
<g mask="url(#mask0_1259_771)">
<rect x="0.5" width="340" height="54" fill="#FAFAFA"/>
<g filter="url(#filter0_d_1259_771)">
<rect x="-20" y="10" width="345" height="34" rx="17" fill="white"/>
</g>
<path d="M309.931 24.3056C309.933 24.0626 309.867 23.824 309.74 23.6166C309.614 23.4093 309.432 23.2414 309.215 23.132C309.009 23.0216 308.776 22.9717 308.543 22.9881C308.311 23.0045 308.087 23.0865 307.899 23.2247L304.99 25.0838V22.8603C304.99 22.5327 304.86 22.2185 304.628 21.9868C304.396 21.7551 304.082 21.625 303.755 21.625H292.637C291.982 21.625 291.353 21.8853 290.89 22.3486C290.427 22.8119 290.167 23.4403 290.167 24.0956V33.9778C290.167 34.6331 290.427 35.2615 290.89 35.7248C291.353 36.1881 291.982 36.4484 292.637 36.4484H303.755C304.082 36.4484 304.396 36.3183 304.628 36.0866C304.86 35.8549 304.99 35.5407 304.99 35.2131V32.9896L307.856 34.8425C308.047 34.9893 308.277 35.0789 308.517 35.1007C308.758 35.1226 309 35.0759 309.215 34.9661C309.435 34.8549 309.62 34.6831 309.747 34.471C309.874 34.2588 309.938 34.015 309.931 33.7678V24.3056ZM308.653 33.8358C308.615 33.8358 308.585 33.8358 308.535 33.7987L303.755 30.7476V35.2131H292.637C292.309 35.2131 291.995 35.083 291.764 34.8513C291.532 34.6197 291.402 34.3055 291.402 33.9778V24.0956C291.402 23.768 291.532 23.4538 291.764 23.2221C291.995 22.9904 292.309 22.8603 292.637 22.8603H303.755V27.3258L308.572 24.2376C308.584 24.2291 308.598 24.2245 308.612 24.2245C308.627 24.2245 308.641 24.2291 308.653 24.2376C308.666 24.2429 308.678 24.2523 308.685 24.2645C308.693 24.2767 308.697 24.2911 308.696 24.3056V33.7678C308.697 33.7823 308.693 33.7967 308.685 33.8089C308.678 33.8211 308.666 33.8305 308.653 33.8358Z" fill="#767676"/>
<rect x="300.784" y="26.4632" width="10.8823" height="10.8823" rx="5.44114" fill="#EA3323"/>
<path d="M308.225 29.9044L304.225 33.9044" stroke="white" stroke-width="0.5" stroke-linejoin="round"/>
<path d="M304.225 29.9044L308.225 33.9044" stroke="white" stroke-width="0.5" stroke-linejoin="round"/>
<rect x="300.784" y="26.4632" width="10.8823" height="10.8823" rx="5.44114" stroke="white"/>
<path d="M17.2031 23.4688V32H16.0723V23.4688H17.2031ZM20.1797 26.6562V32H19.0957V25.6602H20.1504L20.1797 26.6562ZM22.1602 25.625L22.1543 26.6328C22.0645 26.6133 21.9785 26.6016 21.8965 26.5977C21.8184 26.5898 21.7285 26.5859 21.627 26.5859C21.377 26.5859 21.1562 26.625 20.9648 26.7031C20.7734 26.7812 20.6113 26.8906 20.4785 27.0312C20.3457 27.1719 20.2402 27.3398 20.1621 27.5352C20.0879 27.7266 20.0391 27.9375 20.0156 28.168L19.7109 28.3438C19.7109 27.9609 19.748 27.6016 19.8223 27.2656C19.9004 26.9297 20.0195 26.6328 20.1797 26.375C20.3398 26.1133 20.543 25.9102 20.7891 25.7656C21.0391 25.6172 21.3359 25.543 21.6797 25.543C21.7578 25.543 21.8477 25.5527 21.9492 25.5723C22.0508 25.5879 22.1211 25.6055 22.1602 25.625ZM22.7578 28.9004V28.7656C22.7578 28.3086 22.8242 27.8848 22.957 27.4941C23.0898 27.0996 23.2812 26.7578 23.5312 26.4688C23.7812 26.1758 24.084 25.9492 24.4395 25.7891C24.7949 25.625 25.1934 25.543 25.6348 25.543C26.0801 25.543 26.4805 25.625 26.8359 25.7891C27.1953 25.9492 27.5 26.1758 27.75 26.4688C28.0039 26.7578 28.1973 27.0996 28.3301 27.4941C28.4629 27.8848 28.5293 28.3086 28.5293 28.7656V28.9004C28.5293 29.3574 28.4629 29.7812 28.3301 30.1719C28.1973 30.5625 28.0039 30.9043 27.75 31.1973C27.5 31.4863 27.1973 31.7129 26.8418 31.877C26.4902 32.0371 26.0918 32.1172 25.6465 32.1172C25.2012 32.1172 24.8008 32.0371 24.4453 31.877C24.0898 31.7129 23.7852 31.4863 23.5312 31.1973C23.2812 30.9043 23.0898 30.5625 22.957 30.1719C22.8242 29.7812 22.7578 29.3574 22.7578 28.9004ZM23.8418 28.7656V28.9004C23.8418 29.2168 23.8789 29.5156 23.9531 29.7969C24.0273 30.0742 24.1387 30.3203 24.2871 30.5352C24.4395 30.75 24.6289 30.9199 24.8555 31.0449C25.082 31.166 25.3457 31.2266 25.6465 31.2266C25.9434 31.2266 26.2031 31.166 26.4258 31.0449C26.6523 30.9199 26.8398 30.75 26.9883 30.5352C27.1367 30.3203 27.248 30.0742 27.3223 29.7969C27.4004 29.5156 27.4395 29.2168 27.4395 28.9004V28.7656C27.4395 28.4531 27.4004 28.1582 27.3223 27.8809C27.248 27.5996 27.1348 27.3516 26.9824 27.1367C26.834 26.918 26.6465 26.7461 26.4199 26.6211C26.1973 26.4961 25.9355 26.4336 25.6348 26.4336C25.3379 26.4336 25.0762 26.4961 24.8496 26.6211C24.627 26.7461 24.4395 26.918 24.2871 27.1367C24.1387 27.3516 24.0273 27.5996 23.9531 27.8809C23.8789 28.1582 23.8418 28.4531 23.8418 28.7656ZM30.9727 27.0137V32H29.8887V25.6602H30.9141L30.9727 27.0137ZM30.7148 28.5898L30.2637 28.5723C30.2676 28.1387 30.332 27.7383 30.457 27.3711C30.582 27 30.7578 26.6777 30.9844 26.4043C31.2109 26.1309 31.4805 25.9199 31.793 25.7715C32.1094 25.6191 32.459 25.543 32.8418 25.543C33.1543 25.543 33.4355 25.5859 33.6855 25.6719C33.9355 25.7539 34.1484 25.8867 34.3242 26.0703C34.5039 26.2539 34.6406 26.4922 34.7344 26.7852C34.8281 27.0742 34.875 27.4277 34.875 27.8457V32H33.7852V27.834C33.7852 27.502 33.7363 27.2363 33.6387 27.0371C33.541 26.834 33.3984 26.6875 33.2109 26.5977C33.0234 26.5039 32.793 26.457 32.5195 26.457C32.25 26.457 32.0039 26.5137 31.7812 26.627C31.5625 26.7402 31.373 26.8965 31.2129 27.0957C31.0566 27.2949 30.9336 27.5234 30.8438 27.7812C30.7578 28.0352 30.7148 28.3047 30.7148 28.5898ZM39.4395 30.7051L41.9531 23.4688H43.1777L40.0195 32H39.1465L39.4395 30.7051ZM37.0898 23.4688L39.5801 30.7051L39.8906 32H39.0176L35.8652 23.4688H37.0898ZM46.5352 32.1172C46.0938 32.1172 45.6934 32.043 45.334 31.8945C44.9785 31.7422 44.6719 31.5293 44.4141 31.2559C44.1602 30.9824 43.9648 30.6582 43.8281 30.2832C43.6914 29.9082 43.623 29.498 43.623 29.0527V28.8066C43.623 28.291 43.6992 27.832 43.8516 27.4297C44.0039 27.0234 44.2109 26.6797 44.4727 26.3984C44.7344 26.1172 45.0312 25.9043 45.3633 25.7598C45.6953 25.6152 46.0391 25.543 46.3945 25.543C46.8477 25.543 47.2383 25.6211 47.5664 25.7773C47.8984 25.9336 48.1699 26.1523 48.3809 26.4336C48.5918 26.7109 48.748 27.0391 48.8496 27.418C48.9512 27.793 49.002 28.2031 49.002 28.6484V29.1348H44.2676V28.25H47.918V28.168C47.9023 27.8867 47.8438 27.6133 47.7422 27.3477C47.6445 27.082 47.4883 26.8633 47.2734 26.6914C47.0586 26.5195 46.7656 26.4336 46.3945 26.4336C46.1484 26.4336 45.9219 26.4863 45.7148 26.5918C45.5078 26.6934 45.3301 26.8457 45.1816 27.0488C45.0332 27.252 44.918 27.5 44.8359 27.793C44.7539 28.0859 44.7129 28.4238 44.7129 28.8066V29.0527C44.7129 29.3535 44.7539 29.6367 44.8359 29.9023C44.9219 30.1641 45.0449 30.3945 45.2051 30.5938C45.3691 30.793 45.5664 30.9492 45.7969 31.0625C46.0312 31.1758 46.2969 31.2324 46.5938 31.2324C46.9766 31.2324 47.3008 31.1543 47.5664 30.998C47.832 30.8418 48.0645 30.6328 48.2637 30.3711L48.9199 30.8926C48.7832 31.0996 48.6094 31.2969 48.3984 31.4844C48.1875 31.6719 47.9277 31.8242 47.6191 31.9414C47.3145 32.0586 46.9531 32.1172 46.5352 32.1172ZM53.959 30.3184C53.959 30.1621 53.9238 30.0176 53.8535 29.8848C53.7871 29.748 53.6484 29.625 53.4375 29.5156C53.2305 29.4023 52.918 29.3047 52.5 29.2227C52.1484 29.1484 51.8301 29.0605 51.5449 28.959C51.2637 28.8574 51.0234 28.7344 50.8242 28.5898C50.6289 28.4453 50.4785 28.2754 50.373 28.0801C50.2676 27.8848 50.2148 27.6562 50.2148 27.3945C50.2148 27.1445 50.2695 26.9082 50.3789 26.6855C50.4922 26.4629 50.6504 26.2656 50.8535 26.0938C51.0605 25.9219 51.3086 25.7871 51.5977 25.6895C51.8867 25.5918 52.209 25.543 52.5645 25.543C53.0723 25.543 53.5059 25.6328 53.8652 25.8125C54.2246 25.9922 54.5 26.2324 54.6914 26.5332C54.8828 26.8301 54.9785 27.1602 54.9785 27.5234H53.8945C53.8945 27.3477 53.8418 27.1777 53.7363 27.0137C53.6348 26.8457 53.4844 26.707 53.2852 26.5977C53.0898 26.4883 52.8496 26.4336 52.5645 26.4336C52.2637 26.4336 52.0195 26.4805 51.832 26.5742C51.6484 26.6641 51.5137 26.7793 51.4277 26.9199C51.3457 27.0605 51.3047 27.209 51.3047 27.3652C51.3047 27.4824 51.3242 27.5879 51.3633 27.6816C51.4062 27.7715 51.4805 27.8555 51.5859 27.9336C51.6914 28.0078 51.8398 28.0781 52.0312 28.1445C52.2227 28.2109 52.4668 28.2773 52.7637 28.3438C53.2832 28.4609 53.7109 28.6016 54.0469 28.7656C54.3828 28.9297 54.6328 29.1309 54.7969 29.3691C54.9609 29.6074 55.043 29.8965 55.043 30.2363C55.043 30.5137 54.9844 30.7676 54.8672 30.998C54.7539 31.2285 54.5879 31.4277 54.3691 31.5957C54.1543 31.7598 53.8965 31.8887 53.5957 31.9824C53.2988 32.0723 52.9648 32.1172 52.5938 32.1172C52.0352 32.1172 51.5625 32.0176 51.1758 31.8184C50.7891 31.6191 50.4961 31.3613 50.2969 31.0449C50.0977 30.7285 49.998 30.3945 49.998 30.043H51.0879C51.1035 30.3398 51.1895 30.5762 51.3457 30.752C51.502 30.9238 51.6934 31.0469 51.9199 31.1211C52.1465 31.1914 52.3711 31.2266 52.5938 31.2266C52.8906 31.2266 53.1387 31.1875 53.3379 31.1094C53.541 31.0312 53.6953 30.9238 53.8008 30.7871C53.9062 30.6504 53.959 30.4941 53.959 30.3184ZM59.1211 25.6602V26.4922H55.6934V25.6602H59.1211ZM56.8535 24.1191H57.9375V30.4297C57.9375 30.6445 57.9707 30.8066 58.0371 30.916C58.1035 31.0254 58.1895 31.0977 58.2949 31.1328C58.4004 31.168 58.5137 31.1855 58.6348 31.1855C58.7246 31.1855 58.8184 31.1777 58.916 31.1621C59.0176 31.1426 59.0938 31.127 59.1445 31.1152L59.1504 32C59.0645 32.0273 58.9512 32.0527 58.8105 32.0762C58.6738 32.1035 58.5078 32.1172 58.3125 32.1172C58.0469 32.1172 57.8027 32.0645 57.5801 31.959C57.3574 31.8535 57.1797 31.6777 57.0469 31.4316C56.918 31.1816 56.8535 30.8457 56.8535 30.4238V24.1191ZM68.0586 20.625V34.1094H66.8945V20.625H68.0586ZM78.8125 31.0801V32H74.2949V31.0801H78.8125ZM74.5234 23.4688V32H73.3926V23.4688H74.5234ZM78.2148 27.1367V28.0566H74.2949V27.1367H78.2148ZM78.7539 23.4688V24.3945H74.2949V23.4688H78.7539ZM80.7812 25.6602L82.1699 27.9688L83.5762 25.6602H84.8477L82.7734 28.7891L84.9121 32H83.6582L82.1934 29.6211L80.7285 32H79.4688L81.6016 28.7891L79.5332 25.6602H80.7812ZM88.6562 25.6602V26.4922H85.2285V25.6602H88.6562ZM86.3887 24.1191H87.4727V30.4297C87.4727 30.6445 87.5059 30.8066 87.5723 30.916C87.6387 31.0254 87.7246 31.0977 87.8301 31.1328C87.9355 31.168 88.0488 31.1855 88.1699 31.1855C88.2598 31.1855 88.3535 31.1777 88.4512 31.1621C88.5527 31.1426 88.6289 31.127 88.6797 31.1152L88.6855 32C88.5996 32.0273 88.4863 32.0527 88.3457 32.0762C88.209 32.1035 88.043 32.1172 87.8477 32.1172C87.582 32.1172 87.3379 32.0645 87.1152 31.959C86.8926 31.8535 86.7148 31.6777 86.582 31.4316C86.4531 31.1816 86.3887 30.8457 86.3887 30.4238V24.1191ZM92.5586 32.1172C92.1172 32.1172 91.7168 32.043 91.3574 31.8945C91.002 31.7422 90.6953 31.5293 90.4375 31.2559C90.1836 30.9824 89.9883 30.6582 89.8516 30.2832C89.7148 29.9082 89.6465 29.498 89.6465 29.0527V28.8066C89.6465 28.291 89.7227 27.832 89.875 27.4297C90.0273 27.0234 90.2344 26.6797 90.4961 26.3984C90.7578 26.1172 91.0547 25.9043 91.3867 25.7598C91.7188 25.6152 92.0625 25.543 92.418 25.543C92.8711 25.543 93.2617 25.6211 93.5898 25.7773C93.9219 25.9336 94.1934 26.1523 94.4043 26.4336C94.6152 26.7109 94.7715 27.0391 94.873 27.418C94.9746 27.793 95.0254 28.2031 95.0254 28.6484V29.1348H90.291V28.25H93.9414V28.168C93.9258 27.8867 93.8672 27.6133 93.7656 27.3477C93.668 27.082 93.5117 26.8633 93.2969 26.6914C93.082 26.5195 92.7891 26.4336 92.418 26.4336C92.1719 26.4336 91.9453 26.4863 91.7383 26.5918C91.5312 26.6934 91.3535 26.8457 91.2051 27.0488C91.0566 27.252 90.9414 27.5 90.8594 27.793C90.7773 28.0859 90.7363 28.4238 90.7363 28.8066V29.0527C90.7363 29.3535 90.7773 29.6367 90.8594 29.9023C90.9453 30.1641 91.0684 30.3945 91.2285 30.5938C91.3926 30.793 91.5898 30.9492 91.8203 31.0625C92.0547 31.1758 92.3203 31.2324 92.6172 31.2324C93 31.2324 93.3242 31.1543 93.5898 30.998C93.8555 30.8418 94.0879 30.6328 94.2871 30.3711L94.9434 30.8926C94.8066 31.0996 94.6328 31.2969 94.4219 31.4844C94.2109 31.6719 93.9512 31.8242 93.6426 31.9414C93.3379 32.0586 92.9766 32.1172 92.5586 32.1172ZM97.375 27.0137V32H96.291V25.6602H97.3164L97.375 27.0137ZM97.1172 28.5898L96.666 28.5723C96.6699 28.1387 96.7344 27.7383 96.8594 27.3711C96.9844 27 97.1602 26.6777 97.3867 26.4043C97.6133 26.1309 97.8828 25.9199 98.1953 25.7715C98.5117 25.6191 98.8613 25.543 99.2441 25.543C99.5566 25.543 99.8379 25.5859 100.088 25.6719C100.338 25.7539 100.551 25.8867 100.727 26.0703C100.906 26.2539 101.043 26.4922 101.137 26.7852C101.23 27.0742 101.277 27.4277 101.277 27.8457V32H100.188V27.834C100.188 27.502 100.139 27.2363 100.041 27.0371C99.9434 26.834 99.8008 26.6875 99.6133 26.5977C99.4258 26.5039 99.1953 26.457 98.9219 26.457C98.6523 26.457 98.4062 26.5137 98.1836 26.627C97.9648 26.7402 97.7754 26.8965 97.6152 27.0957C97.459 27.2949 97.3359 27.5234 97.2461 27.7812C97.1602 28.0352 97.1172 28.3047 97.1172 28.5898ZM106.615 30.3184C106.615 30.1621 106.58 30.0176 106.51 29.8848C106.443 29.748 106.305 29.625 106.094 29.5156C105.887 29.4023 105.574 29.3047 105.156 29.2227C104.805 29.1484 104.486 29.0605 104.201 28.959C103.92 28.8574 103.68 28.7344 103.48 28.5898C103.285 28.4453 103.135 28.2754 103.029 28.0801C102.924 27.8848 102.871 27.6562 102.871 27.3945C102.871 27.1445 102.926 26.9082 103.035 26.6855C103.148 26.4629 103.307 26.2656 103.51 26.0938C103.717 25.9219 103.965 25.7871 104.254 25.6895C104.543 25.5918 104.865 25.543 105.221 25.543C105.729 25.543 106.162 25.6328 106.521 25.8125C106.881 25.9922 107.156 26.2324 107.348 26.5332C107.539 26.8301 107.635 27.1602 107.635 27.5234H106.551C106.551 27.3477 106.498 27.1777 106.393 27.0137C106.291 26.8457 106.141 26.707 105.941 26.5977C105.746 26.4883 105.506 26.4336 105.221 26.4336C104.92 26.4336 104.676 26.4805 104.488 26.5742C104.305 26.6641 104.17 26.7793 104.084 26.9199C104.002 27.0605 103.961 27.209 103.961 27.3652C103.961 27.4824 103.98 27.5879 104.02 27.6816C104.062 27.7715 104.137 27.8555 104.242 27.9336C104.348 28.0078 104.496 28.0781 104.688 28.1445C104.879 28.2109 105.123 28.2773 105.42 28.3438C105.939 28.4609 106.367 28.6016 106.703 28.7656C107.039 28.9297 107.289 29.1309 107.453 29.3691C107.617 29.6074 107.699 29.8965 107.699 30.2363C107.699 30.5137 107.641 30.7676 107.523 30.998C107.41 31.2285 107.244 31.4277 107.025 31.5957C106.811 31.7598 106.553 31.8887 106.252 31.9824C105.955 32.0723 105.621 32.1172 105.25 32.1172C104.691 32.1172 104.219 32.0176 103.832 31.8184C103.445 31.6191 103.152 31.3613 102.953 31.0449C102.754 30.7285 102.654 30.3945 102.654 30.043H103.744C103.76 30.3398 103.846 30.5762 104.002 30.752C104.158 30.9238 104.35 31.0469 104.576 31.1211C104.803 31.1914 105.027 31.2266 105.25 31.2266C105.547 31.2266 105.795 31.1875 105.994 31.1094C106.197 31.0312 106.352 30.9238 106.457 30.7871C106.562 30.6504 106.615 30.4941 106.615 30.3184ZM110.301 25.6602V32H109.211V25.6602H110.301ZM109.129 23.9785C109.129 23.8027 109.182 23.6543 109.287 23.5332C109.396 23.4121 109.557 23.3516 109.768 23.3516C109.975 23.3516 110.133 23.4121 110.242 23.5332C110.355 23.6543 110.412 23.8027 110.412 23.9785C110.412 24.1465 110.355 24.291 110.242 24.4121C110.133 24.5293 109.975 24.5879 109.768 24.5879C109.557 24.5879 109.396 24.5293 109.287 24.4121C109.182 24.291 109.129 24.1465 109.129 23.9785ZM111.754 28.9004V28.7656C111.754 28.3086 111.82 27.8848 111.953 27.4941C112.086 27.0996 112.277 26.7578 112.527 26.4688C112.777 26.1758 113.08 25.9492 113.436 25.7891C113.791 25.625 114.189 25.543 114.631 25.543C115.076 25.543 115.477 25.625 115.832 25.7891C116.191 25.9492 116.496 26.1758 116.746 26.4688C117 26.7578 117.193 27.0996 117.326 27.4941C117.459 27.8848 117.525 28.3086 117.525 28.7656V28.9004C117.525 29.3574 117.459 29.7812 117.326 30.1719C117.193 30.5625 117 30.9043 116.746 31.1973C116.496 31.4863 116.193 31.7129 115.838 31.877C115.486 32.0371 115.088 32.1172 114.643 32.1172C114.197 32.1172 113.797 32.0371 113.441 31.877C113.086 31.7129 112.781 31.4863 112.527 31.1973C112.277 30.9043 112.086 30.5625 111.953 30.1719C111.82 29.7812 111.754 29.3574 111.754 28.9004ZM112.838 28.7656V28.9004C112.838 29.2168 112.875 29.5156 112.949 29.7969C113.023 30.0742 113.135 30.3203 113.283 30.5352C113.436 30.75 113.625 30.9199 113.852 31.0449C114.078 31.166 114.342 31.2266 114.643 31.2266C114.939 31.2266 115.199 31.166 115.422 31.0449C115.648 30.9199 115.836 30.75 115.984 30.5352C116.133 30.3203 116.244 30.0742 116.318 29.7969C116.396 29.5156 116.436 29.2168 116.436 28.9004V28.7656C116.436 28.4531 116.396 28.1582 116.318 27.8809C116.244 27.5996 116.131 27.3516 115.979 27.1367C115.83 26.918 115.643 26.7461 115.416 26.6211C115.193 26.4961 114.932 26.4336 114.631 26.4336C114.334 26.4336 114.072 26.4961 113.846 26.6211C113.623 26.7461 113.436 26.918 113.283 27.1367C113.135 27.3516 113.023 27.5996 112.949 27.8809C112.875 28.1582 112.838 28.4531 112.838 28.7656ZM119.969 27.0137V32H118.885V25.6602H119.91L119.969 27.0137ZM119.711 28.5898L119.26 28.5723C119.264 28.1387 119.328 27.7383 119.453 27.3711C119.578 27 119.754 26.6777 119.98 26.4043C120.207 26.1309 120.477 25.9199 120.789 25.7715C121.105 25.6191 121.455 25.543 121.838 25.543C122.15 25.543 122.432 25.5859 122.682 25.6719C122.932 25.7539 123.145 25.8867 123.32 26.0703C123.5 26.2539 123.637 26.4922 123.73 26.7852C123.824 27.0742 123.871 27.4277 123.871 27.8457V32H122.781V27.834C122.781 27.502 122.732 27.2363 122.635 27.0371C122.537 26.834 122.395 26.6875 122.207 26.5977C122.02 26.5039 121.789 26.457 121.516 26.457C121.246 26.457 121 26.5137 120.777 26.627C120.559 26.7402 120.369 26.8965 120.209 27.0957C120.053 27.2949 119.93 27.5234 119.84 27.7812C119.754 28.0352 119.711 28.3047 119.711 28.5898Z" fill="#AAAAAA"/>
</g>
<defs>
<filter id="filter0_d_1259_771" x="-30" y="2" width="365" height="54" filterUnits="userSpaceOnUse" color-interpolation-filters="sRGB">
<feFlood flood-opacity="0" result="BackgroundImageFix"/>
<feColorMatrix in="SourceAlpha" type="matrix" values="0 0 0 0 0 0 0 0 0 0 0 0 0 0 0 0 0 0 127 0" result="hardAlpha"/>
<feOffset dy="2"/>
<feGaussianBlur stdDeviation="5"/>
<feComposite in2="hardAlpha" operator="out"/>
<feColorMatrix type="matrix" values="0 0 0 0 0 0 0 0 0 0 0 0 0 0 0 0 0 0 0.06 0"/>
<feBlend mode="normal" in2="BackgroundImageFix" result="effect1_dropShadow_1259_771"/>
<feBlend mode="normal" in="SourceGraphic" in2="effect1_dropShadow_1259_771" result="shape"/>
</filter>
</defs>
</svg>
