  0
SECTION
  2
HEADER
  9
$ACADVER
  1
AC1024
  9
$ACADMAINTVER
 70
6
  9
$DWGCODEPAGE
  3
ANSI_1252
  9
$LASTSAVEDBY
  1
ezdxf
  9
$INSBASE
 10
0.0
 20
0.0
 30
0.0
  9
$EXTMIN
 10
1e+20
 20
1e+20
 30
1e+20
  9
$EXTMAX
 10
-1e+20
 20
-1e+20
 30
-1e+20
  9
$LIMMIN
 10
0.0
 20
0.0
  9
$LIMMAX
 10
420.0
 20
297.0
  9
$ORTHOMODE
 70
0
  9
$REGENMODE
 70
1
  9
$FILLMODE
 70
1
  9
$QTEXTMODE
 70
0
  9
$MIRRTEXT
 70
1
  9
$LTSCALE
 40
1.0
  9
$ATTMODE
 70
1
  9
$TEXTSIZE
 40
2.5
  9
$TRACEWID
 40
1.0
  9
$TEXTSTYLE
  7
Standard
  9
$CLAYER
  8
0
  9
$CELTYPE
  6
ByLayer
  9
$CECOLOR
 62
256
  9
$CELTSCALE
 40
1.0
  9
$DISPSILH
 70
0
  9
$DIMSCALE
 40
1.0
  9
$DIMASZ
 40
2.5
  9
$DIMEXO
 40
0.625
  9
$DIMDLI
 40
3.75
  9
$DIMRND
 40
0.0
  9
$DIMDLE
 40
0.0
  9
$DIMEXE
 40
1.25
  9
$DIMTP
 40
0.0
  9
$DIMTM
 40
0.0
  9
$DIMTXT
 40
2.5
  9
$DIMCEN
 40
2.5
  9
$DIMTSZ
 40
0.0
  9
$DIMTOL
 70
0
  9
$DIMLIM
 70
0
  9
$DIMTIH
 70
0
  9
$DIMTOH
 70
0
  9
$DIMSE1
 70
0
  9
$DIMSE2
 70
0
  9
$DIMTAD
 70
1
  9
$DIMZIN
 70
8
  9
$DIMBLK
  1

  9
$DIMASO
 70
1
  9
$DIMSHO
 70
1
  9
$DIMPOST
  1

  9
$DIMAPOST
  1

  9
$DIMALT
 70
0
  9
$DIMALTD
 70
3
  9
$DIMALTF
 40
0.03937007874
  9
$DIMLFAC
 40
1.0
  9
$DIMTOFL
 70
1
  9
$DIMTVP
 40
0.0
  9
$DIMTIX
 70
0
  9
$DIMSOXD
 70
0
  9
$DIMSAH
 70
0
  9
$DIMBLK1
  1

  9
$DIMBLK2
  1

  9
$DIMSTYLE
  2
ISO-25
  9
$DIMCLRD
 70
0
  9
$DIMCLRE
 70
0
  9
$DIMCLRT
 70
0
  9
$DIMTFAC
 40
1.0
  9
$DIMGAP
 40
0.625
  9
$DIMJUST
 70
0
  9
$DIMSD1
 70
0
  9
$DIMSD2
 70
0
  9
$DIMTOLJ
 70
0
  9
$DIMTZIN
 70
8
  9
$DIMALTZ
 70
0
  9
$DIMALTTZ
 70
0
  9
$DIMUPT
 70
0
  9
$DIMDEC
 70
2
  9
$DIMTDEC
 70
2
  9
$DIMALTU
 70
2
  9
$DIMALTTD
 70
3
  9
$DIMTXSTY
  7
Standard
  9
$DIMAUNIT
 70
0
  9
$DIMADEC
 70
0
  9
$DIMALTRND
 40
0.0
  9
$DIMAZIN
 70
0
  9
$DIMDSEP
 70
44
  9
$DIMATFIT
 70
3
  9
$DIMFRAC
 70
0
  9
$DIMLDRBLK
  1

  9
$DIMLUNIT
 70
2
  9
$DIMLWD
 70
-2
  9
$DIMLWE
 70
-2
  9
$DIMTMOVE
 70
0
  9
$DIMFXL
 40
1.0
  9
$DIMFXLON
 70
0
  9
$DIMJOGANG
 40
0.785398163397
  9
$DIMTFILL
 70
0
  9
$DIMTFILLCLR
 70
0
  9
$DIMARCSYM
 70
0
  9
$DIMLTYPE
  6

  9
$DIMLTEX1
  6

  9
$DIMLTEX2
  6

  9
$DIMTXTDIRECTION
 70
0
  9
$LUNITS
 70
2
  9
$LUPREC
 70
4
  9
$SKETCHINC
 40
1.0
  9
$FILLETRAD
 40
10.0
  9
$AUNITS
 70
0
  9
$AUPREC
 70
2
  9
$MENU
  1
.
  9
$ELEVATION
 40
0.0
  9
$PELEVATION
 40
0.0
  9
$THICKNESS
 40
0.0
  9
$LIMCHECK
 70
0
  9
$CHAMFERA
 40
0.0
  9
$CHAMFERB
 40
0.0
  9
$CHAMFERC
 40
0.0
  9
$CHAMFERD
 40
0.0
  9
$SKPOLY
 70
0
  9
$TDCREATE
 40
2461084.9
  9
$TDUCREATE
 40
2458532.153996898
  9
$TDUPDATE
 40
2461084.9
  9
$TDUUPDATE
 40
2458532.1544311
  9
$TDINDWG
 40
0.0
  9
$TDUSRTIMER
 40
0.0
  9
$USRTIMER
 70
1
  9
$ANGBASE
 50
0.0
  9
$ANGDIR
 70
0
  9
$PDMODE
 70
0
  9
$PDSIZE
 40
0.0
  9
$PLINEWID
 40
0.0
  9
$SPLFRAME
 70
0
  9
$SPLINETYPE
 70
6
  9
$SPLINESEGS
 70
8
  9
$HANDSEED
  5
73
  9
$SURFTAB1
 70
6
  9
$SURFTAB2
 70
6
  9
$SURFTYPE
 70
6
  9
$SURFU
 70
6
  9
$SURFV
 70
6
  9
$UCSBASE
  2

  9
$UCSNAME
  2

  9
$UCSORG
 10
0.0
 20
0.0
 30
0.0
  9
$UCSXDIR
 10
1.0
 20
0.0
 30
0.0
  9
$UCSYDIR
 10
0.0
 20
1.0
 30
0.0
  9
$UCSORTHOREF
  2

  9
$UCSORTHOVIEW
 70
0
  9
$UCSORGTOP
 10
0.0
 20
0.0
 30
0.0
  9
$UCSORGBOTTOM
 10
0.0
 20
0.0
 30
0.0
  9
$UCSORGLEFT
 10
0.0
 20
0.0
 30
0.0
  9
$UCSORGRIGHT
 10
0.0
 20
0.0
 30
0.0
  9
$UCSORGFRONT
 10
0.0
 20
0.0
 30
0.0
  9
$UCSORGBACK
 10
0.0
 20
0.0
 30
0.0
  9
$PUCSBASE
  2

  9
$PUCSNAME
  2

  9
$PUCSORG
 10
0.0
 20
0.0
 30
0.0
  9
$PUCSXDIR
 10
1.0
 20
0.0
 30
0.0
  9
$PUCSYDIR
 10
0.0
 20
1.0
 30
0.0
  9
$PUCSORTHOREF
  2

  9
$PUCSORTHOVIEW
 70
0
  9
$PUCSORGTOP
 10
0.0
 20
0.0
 30
0.0
  9
$PUCSORGBOTTOM
 10
0.0
 20
0.0
 30
0.0
  9
$PUCSORGLEFT
 10
0.0
 20
0.0
 30
0.0
  9
$PUCSORGRIGHT
 10
0.0
 20
0.0
 30
0.0
  9
$PUCSORGFRONT
 10
0.0
 20
0.0
 30
0.0
  9
$PUCSORGBACK
 10
0.0
 20
0.0
 30
0.0
  9
$USERI1
 70
0
  9
$USERI2
 70
0
  9
$USERI3
 70
0
  9
$USERI4
 70
0
  9
$USERI5
 70
0
  9
$USERR1
 40
0.0
  9
$USERR2
 40
0.0
  9
$USERR3
 40
0.0
  9
$USERR4
 40
0.0
  9
$USERR5
 40
0.0
  9
$WORLDVIEW
 70
1
  9
$SHADEDGE
 70
3
  9
$SHADEDIF
 70
70
  9
$TILEMODE
 70
1
  9
$MAXACTVP
 70
64
  9
$PINSBASE
 10
0.0
 20
0.0
 30
0.0
  9
$PLIMCHECK
 70
0
  9
$PEXTMIN
 10
1e+20
 20
1e+20
 30
1e+20
  9
$PEXTMAX
 10
-1e+20
 20
-1e+20
 30
-1e+20
  9
$PLIMMIN
 10
0.0
 20
0.0
  9
$PLIMMAX
 10
420.0
 20
297.0
  9
$UNITMODE
 70
0
  9
$VISRETAIN
 70
1
  9
$PLINEGEN
 70
0
  9
$PSLTSCALE
 70
1
  9
$TREEDEPTH
 70
3020
  9
$CMLSTYLE
  2
Standard
  9
$CMLJUST
 70
0
  9
$CMLSCALE
 40
20.0
  9
$PROXYGRAPHICS
 70
1
  9
$MEASUREMENT
 70
1
  9
$CELWEIGHT
370
-1
  9
$ENDCAPS
280
0
  9
$JOINSTYLE
280
0
  9
$LWDISPLAY
290
0
  9
$INSUNITS
 70
2
  9
$HYPERLINKBASE
  1

  9
$STYLESHEET
  1

  9
$XEDIT
290
1
  9
$CEPSNTYPE
380
0
  9
$PSTYLEMODE
290
1
  9
$FINGERPRINTGUID
  2
{97E288E1-BCA5-4114-9503-FD634F5B492A}
  9
$VERSIONGUID
  2
{4D003E66-21E7-40E3-AEBE-56D049B849AB}
  9
$EXTNAMES
290
1
  9
$PSVPSCALE
 40
0.0
  9
$OLESTARTUP
290
0
  9
$SORTENTS
280
127
  9
$INDEXCTL
280
0
  9
$HIDETEXT
280
1
  9
$XCLIPFRAME
280
1
  9
$HALOGAP
280
0
  9
$OBSCOLOR
 70
257
  9
$OBSLTYPE
280
0
  9
$INTERSECTIONDISPLAY
280
0
  9
$INTERSECTIONCOLOR
 70
257
  9
$DIMASSOC
280
2
  9
$PROJECTNAME
  1

  9
$CAMERADISPLAY
290
0
  9
$LENSLENGTH
 40
50.0
  9
$CAMERAHEIGHT
 40
0.0
  9
$STEPSPERSEC
 40
24.0
  9
$STEPSIZE
 40
100.0
  9
$3DDWFPREC
 40
2.0
  9
$PSOLWIDTH
 40
0.005
  9
$PSOLHEIGHT
 40
0.08
  9
$LOFTANG1
 40
1.570796326795
  9
$LOFTANG2
 40
1.570796326795
  9
$LOFTMAG1
 40
0.0
  9
$LOFTMAG2
 40
0.0
  9
$LOFTPARAM
 70
7
  9
$LOFTNORMALS
280
1
  9
$LATITUDE
 40
37.795
  9
$LONGITUDE
 40
-122.394
  9
$NORTHDIRECTION
 40
0.0
  9
$TIMEZONE
 70
-8000
  9
$LIGHTGLYPHDISPLAY
280
1
  9
$TILEMODELIGHTSYNCH
280
1
  9
$CMATERIAL
347
20
  9
$SOLIDHIST
280
0
  9
$SHOWHIST
280
1
  9
$DWFFRAME
280
2
  9
$DGNFRAME
280
2
  9
$REALWORLDSCALE
290
1
  9
$INTERFERECOLOR
 62
256
  9
$CSHADOW
280
0
  9
$SHADOWPLANELOCATION
 40
0.0
  0
ENDSEC
  0
SECTION
  2
CLASSES
  0
CLASS
  1
ACDBDICTIONARYWDFLT
  2
AcDbDictionaryWithDefault
  3
ObjectDBX Classes
 90
0
 91
0
280
0
281
0
  0
CLASS
  1
SUN
  2
AcDbSun
  3
SCENEOE
 90
1153
 91
0
280
0
281
0
  0
CLASS
  1
VISUALSTYLE
  2
AcDbVisualStyle
  3
ObjectDBX Classes
 90
4095
 91
0
280
0
281
0
  0
CLASS
  1
MATERIAL
  2
AcDbMaterial
  3
ObjectDBX Classes
 90
1153
 91
0
280
0
281
0
  0
CLASS
  1
SCALE
  2
AcDbScale
  3
ObjectDBX Classes
 90
1153
 91
0
280
0
281
0
  0
CLASS
  1
TABLESTYLE
  2
AcDbTableStyle
  3
ObjectDBX Classes
 90
4095
 91
0
280
0
281
0
  0
CLASS
  1
MLEADERSTYLE
  2
AcDbMLeaderStyle
  3
ACDB_MLEADERSTYLE_CLASS
 90
4095
 91
0
280
0
281
0
  0
CLASS
  1
DICTIONARYVAR
  2
AcDbDictionaryVar
  3
ObjectDBX Classes
 90
0
 91
0
280
0
281
0
  0
CLASS
  1
CELLSTYLEMAP
  2
AcDbCellStyleMap
  3
ObjectDBX Classes
 90
1152
 91
0
280
0
281
0
  0
CLASS
  1
MENTALRAYRENDERSETTINGS
  2
AcDbMentalRayRenderSettings
  3
SCENEOE
 90
1024
 91
0
280
0
281
0
  0
CLASS
  1
ACDBDETAILVIEWSTYLE
  2
AcDbDetailViewStyle
  3
ObjectDBX Classes
 90
1025
 91
0
280
0
281
0
  0
CLASS
  1
ACDBSECTIONVIEWSTYLE
  2
AcDbSectionViewStyle
  3
ObjectDBX Classes
 90
1025
 91
0
280
0
281
0
  0
CLASS
  1
RASTERVARIABLES
  2
AcDbRasterVariables
  3
ISM
 90
0
 91
0
280
0
281
0
  0
CLASS
  1
LAYOUT
  2
AcDbLayout
  3
ObjectDBX Classes
 90
0
 91
0
280
0
281
0
  0
CLASS
  1
ACDBPLACEHOLDER
  2
AcDbPlaceHolder
  3
ObjectDBX Classes
 90
0
 91
0
280
0
281
0
  0
ENDSEC
  0
SECTION
  2
TABLES
  0
TABLE
  2
VPORT
  5
8
330
0
100
AcDbSymbolTable
 70
1
  0
VPORT
  5
23
330
8
100
AcDbSymbolTableRecord
100
AcDbViewportTableRecord
  2
*Active
 70
0
 10
0.0
 20
0.0
 11
1.0
 21
1.0
 12
0.0
 22
0.0
 13
0.0
 23
0.0
 14
0.5
 24
0.5
 15
0.5
 25
0.5
 16
0.0
 26
0.0
 36
1.0
 17
0.0
 27
0.0
 37
0.0
 40
1000.0
 41
1.34
 42
50.0
 43
0.0
 44
0.0
 50
0.0
 51
0.0
 71
0
 72
1000
 73
1
 74
3
 75
0
 76
0
 77
0
 78
0
281
0
 65
0
146
0.0
  0
ENDTAB
  0
TABLE
  2
LTYPE
  5
2
330
0
100
AcDbSymbolTable
 70
3
  0
LTYPE
  5
24
330
2
100
AcDbSymbolTableRecord
100
AcDbLinetypeTableRecord
  2
ByBlock
 70
0
  3

 72
65
 73
0
 40
0.0
  0
LTYPE
  5
25
330
2
100
AcDbSymbolTableRecord
100
AcDbLinetypeTableRecord
  2
ByLayer
 70
0
  3

 72
65
 73
0
 40
0.0
  0
LTYPE
  5
26
330
2
100
AcDbSymbolTableRecord
100
AcDbLinetypeTableRecord
  2
Continuous
 70
0
  3

 72
65
 73
0
 40
0.0
  0
ENDTAB
  0
TABLE
  2
LAYER
  5
1
330
0
100
AcDbSymbolTable
 70
8
  0
LAYER
  5
27
330
1
100
AcDbSymbolTableRecord
100
AcDbLayerTableRecord
  2
0
 70
0
 62
7
  6
Continuous
370
-3
390
13
347
21
  0
LAYER
  5
28
330
1
100
AcDbSymbolTableRecord
100
AcDbLayerTableRecord
  2
Defpoints
 70
0
 62
7
  6
Continuous
290
0
370
-3
390
13
347
21
  0
LAYER
  5
2F
330
1
100
AcDbSymbolTableRecord
100
AcDbLayerTableRecord
  2
WALLS
 70
0
 62
7
  6
Continuous
370
-3
390
13
347
21
  0
LAYER
  5
30
330
1
100
AcDbSymbolTableRecord
100
AcDbLayerTableRecord
  2
DOORS
 70
0
 62
5
  6
Continuous
370
-3
390
13
347
21
  0
LAYER
  5
31
330
1
100
AcDbSymbolTableRecord
100
AcDbLayerTableRecord
  2
WINDOWS
 70
0
 62
4
  6
Continuous
370
-3
390
13
347
21
  0
LAYER
  5
32
330
1
100
AcDbSymbolTableRecord
100
AcDbLayerTableRecord
  2
CASEWORK
 70
0
 62
6
  6
Continuous
370
-3
390
13
347
21
  0
LAYER
  5
33
330
1
100
AcDbSymbolTableRecord
100
AcDbLayerTableRecord
  2
FIXTURES
 70
0
 62
30
  6
Continuous
370
-3
390
13
347
21
  0
LAYER
  5
34
330
1
100
AcDbSymbolTableRecord
100
AcDbLayerTableRecord
  2
TEXT
 70
0
 62
2
  6
Continuous
370
-3
390
13
347
21
  0
ENDTAB
  0
TABLE
  2
STYLE
  5
5
330
0
100
AcDbSymbolTable
 70
1
  0
STYLE
  5
29
330
5
100
AcDbSymbolTableRecord
100
AcDbTextStyleTableRecord
  2
Standard
 70
0
 40
0.0
 41
1.0
 50
0.0
 71
0
 42
2.5
  3
txt
  4

  0
ENDTAB
  0
TABLE
  2
VIEW
  5
7
330
0
100
AcDbSymbolTable
 70
0
  0
ENDTAB
  0
TABLE
  2
UCS
  5
6
330
0
100
AcDbSymbolTable
 70
0
  0
ENDTAB
  0
TABLE
  2
APPID
  5
3
330
0
100
AcDbSymbolTable
 70
3
  0
APPID
  5
2A
330
3
100
AcDbSymbolTableRecord
100
AcDbRegAppTableRecord
  2
ACAD
 70
0
  0
APPID
  5
70
330
3
100
AcDbSymbolTableRecord
100
AcDbRegAppTableRecord
  2
HATCHBACKGROUNDCOLOR
 70
0
  0
APPID
  5
71
330
3
100
AcDbSymbolTableRecord
100
AcDbRegAppTableRecord
  2
EZDXF
 70
0
  0
ENDTAB
  0
TABLE
  2
DIMSTYLE
  5
4
330
0
100
AcDbSymbolTable
 70
1
100
AcDbDimStyleTable
  0
DIMSTYLE
105
2B
330
4
100
AcDbSymbolTableRecord
100
AcDbDimStyleTableRecord
  2
Standard
 70
0
 40
1.0
 41
2.5
 42
0.625
 43
3.75
 44
1.25
 45
0.0
 46
0.0
 47
0.0
 48
0.0
 49
2.5
140
2.5
141
2.5
142
0.0
143
0.03937007874
144
1.0
145
0.0
146
1.0
147
0.625
148
0.0
 69
0
 70
0
 71
0
 72
0
 73
0
 74
0
 75
0
 76
0
 77
1
 78
8
 79
3
170
0
171
3
172
1
173
0
174
0
175
0
176
0
177
0
178
0
179
2
271
2
272
2
273
2
274
3
275
0
276
0
277
2
278
44
279
0
280
0
281
0
282
0
283
0
284
8
285
0
286
0
288
0
289
3
290
0
371
-2
372
-2
  0
ENDTAB
  0
TABLE
  2
BLOCK_RECORD
  5
9
330
0
100
AcDbSymbolTable
 70
2
  0
BLOCK_RECORD
  5
17
330
9
100
AcDbSymbolTableRecord
100
AcDbBlockTableRecord
  2
*Model_Space
340
1A
 70
0
280
1
281
0
  0
BLOCK_RECORD
  5
1B
330
9
100
AcDbSymbolTableRecord
100
AcDbBlockTableRecord
  2
*Paper_Space
340
1E
 70
0
280
1
281
0
  0
ENDTAB
  0
ENDSEC
  0
SECTION
  2
BLOCKS
  0
BLOCK
  5
18
330
17
100
AcDbEntity
  8
0
100
AcDbBlockBegin
  2
*Model_Space
 70
0
 10
0.0
 20
0.0
 30
0.0
  3
*Model_Space
  1

  0
ENDBLK
  5
19
330
17
100
AcDbEntity
  8
0
100
AcDbBlockEnd
  0
BLOCK
  5
1C
330
1B
100
AcDbEntity
  8
0
100
AcDbBlockBegin
  2
*Paper_Space
 70
0
 10
0.0
 20
0.0
 30
0.0
  3
*Paper_Space
  1

  0
ENDBLK
  5
1D
330
1B
100
AcDbEntity
  8
0
100
AcDbBlockEnd
  0
ENDSEC
  0
SECTION
  2
ENTITIES
  0
LWPOLYLINE
  5
35
330
17
100
AcDbEntity
  8
WALLS
100
AcDbPolyline
 90
4
 70
1
 10
5.848484848484848
 20
0.5603674540682415
 10
5.848484848484848
 20
0.08005249343832022
 10
15.839646464646464
 20
0.08005249343832022
 10
15.839646464646464
 20
0.5603674540682415
  0
LWPOLYLINE
  5
36
330
17
100
AcDbEntity
  8
WALLS
100
AcDbPolyline
 90
6
 70
1
 10
32.08543771043771
 20
11.12729658792651
 10
31.59806397306397
 20
11.12729658792651
 10
31.59806397306397
 20
0.6404199475065617
 10
28.34890572390572
 20
0.6404199475065617
 10
28.34890572390572
 20
0.08005249343832022
 10
32.08543771043771
 20
0.08005249343832022
  0
LWPOLYLINE
  5
37
330
17
100
AcDbEntity
  8
WALLS
100
AcDbPolyline
 90
7
 70
1
 10
9.260101010101009
 20
11.68766404199475
 10
9.260101010101009
 20
11.20734908136483
 10
10.722222222222221
 20
11.20734908136483
 10
10.722222222222221
 20
9.125984251968504
 10
10.722222222222221
 20
8.725721784776903
 10
11.128367003367002
 20
8.725721784776903
 10
11.128367003367002
 20
11.68766404199475
  0
LWPOLYLINE
  5
38
330
17
100
AcDbEntity
  8
WALLS
100
AcDbPolyline
 90
13
 70
1
 10
0.0
 20
11.68766404199475
 10
0.0
 20
0.16010498687664043
 10
3.0867003367003365
 20
0.16010498687664043
 10
3.0867003367003365
 20
0.5603674540682415
 10
0.48737373737373735
 20
0.5603674540682415
 10
0.48737373737373735
 20
4.242782152230971
 10
0.8122895622895622
 20
4.242782152230971
 10
0.8122895622895622
 20
5.043307086614174
 10
0.8122895622895622
 20
5.923884514435696
 10
0.48737373737373735
 20
5.923884514435696
 10
0.48737373737373735
 20
11.12729658792651
 10
1.868265993265993
 20
11.12729658792651
 10
1.868265993265993
 20
11.68766404199475
  0
LWPOLYLINE
  5
39
330
17
100
AcDbEntity
  8
WALLS
100
AcDbPolyline
 90
4
 70
1
 10
9.991161616161616
 20
18.972440944881892
 10
9.991161616161616
 20
18.57217847769029
 10
17.22053872053872
 20
18.57217847769029
 10
17.22053872053872
 20
19.052493438320212
  0
LWPOLYLINE
  5
3A
330
17
100
AcDbEntity
  8
WALLS
100
AcDbPolyline
 90
8
 70
1
 10
19.657407407407405
 20
19.052493438320212
 10
19.657407407407405
 20
18.57217847769029
 10
19.901094276094273
 20
18.57217847769029
 10
19.901094276094273
 20
16.090551181102363
 10
32.08543771043771
 20
16.090551181102363
 10
32.08543771043771
 20
16.570866141732285
 10
20.46969696969697
 20
16.570866141732285
 10
20.46969696969697
 20
19.29265091863517
  0
LWPOLYLINE
  5
3B
330
17
100
AcDbEntity
  8
WALLS
100
AcDbPolyline
 90
29
 70
1
 10
0.0
 20
30.419947506561684
 10
0.0
 20
18.57217847769029
 10
4.548821548821548
 20
18.57217847769029
 10
4.548821548821548
 20
18.972440944881892
 10
0.48737373737373735
 20
18.972440944881892
 10
0.48737373737373735
 20
30.01968503937008
 10
10.559764309764308
 20
30.01968503937008
 10
10.559764309764308
 20
22.014435695538058
 10
17.22053872053872
 20
22.014435695538058
 10
17.22053872053872
 20
22.5748031496063
 10
11.209595959595958
 20
22.5748031496063
 10
11.209595959595958
 20
30.01968503937008
 10
13.484006734006732
 20
30.01968503937008
 10
13.484006734006732
 20
27.137795275590552
 10
14.052609427609426
 20
27.137795275590552
 10
14.052609427609426
 20
30.01968503937008
 10
17.13930976430976
 20
30.01968503937008
 10
17.13930976430976
 20
27.137795275590552
 10
17.707912457912457
 20
27.137795275590552
 10
17.707912457912457
 20
29.93963254593176
 10
19.251262626262623
 20
29.93963254593176
 10
19.81986531986532
 20
29.93963254593176
 10
19.81986531986532
 20
21.85433070866142
 10
20.38846801346801
 20
21.85433070866142
 10
20.38846801346801
 20
30.01968503937008
 10
31.516835016835014
 20
30.01968503937008
 10
31.516835016835014
 20
21.053805774278217
 10
32.08543771043771
 20
21.053805774278217
 10
32.08543771043771
 20
30.500000000000004
  0
ARC
  5
3C
330
17
100
AcDbEntity
  8
DOORS
100
AcDbCircle
 10
14.296296296296294
 20
0.4803149606299213
 30
0.0
 40
2.4368686868686864
100
AcDbArc
 50
0.0
 51
90.0
  0
LINE
  5
3D
330
17
100
AcDbEntity
  8
DOORS
100
AcDbLine
 10
14.296296296296294
 20
0.4803149606299213
 30
0.0
 11
16.73316498316498
 21
0.4803149606299213
 31
0.0
  0
ARC
  5
3E
330
17
100
AcDbEntity
  8
DOORS
100
AcDbCircle
 10
10.722222222222221
 20
8.485564304461942
 30
0.0
 40
2.274410774410774
100
AcDbArc
 50
180.0
 51
270.0
  0
LINE
  5
3F
330
17
100
AcDbEntity
  8
DOORS
100
AcDbLine
 10
10.722222222222221
 20
8.485564304461942
 30
0.0
 11
8.447811447811446
 21
8.485564304461942
 31
0.0
  0
ARC
  5
40
330
17
100
AcDbEntity
  8
DOORS
100
AcDbCircle
 10
10.722222222222221
 20
17.051181102362207
 30
0.0
 40
2.4368686868686864
100
AcDbArc
 50
180.0
 51
270.0
  0
LINE
  5
41
330
17
100
AcDbEntity
  8
DOORS
100
AcDbLine
 10
10.722222222222221
 20
17.051181102362207
 30
0.0
 11
8.285353535353535
 21
17.051181102362207
 31
0.0
  0
ARC
  5
42
330
17
100
AcDbEntity
  8
DOORS
100
AcDbCircle
 10
20.144781144781142
 20
9.045931758530184
 30
0.0
 40
2.4368686868686864
100
AcDbArc
 50
270.0
 51
360.0
  0
LINE
  5
43
330
17
100
AcDbEntity
  8
DOORS
100
AcDbLine
 10
20.144781144781142
 20
9.045931758530184
 30
0.0
 11
20.144781144781142
 21
6.609063071661497
 31
0.0
  0
ARC
  5
44
330
17
100
AcDbEntity
  8
DOORS
100
AcDbCircle
 10
9.01641414141414
 20
18.892388451443573
 30
0.0
 40
2.1119528619528616
100
AcDbArc
 50
90.0
 51
180.0
  0
LINE
  5
45
330
17
100
AcDbEntity
  8
DOORS
100
AcDbLine
 10
9.01641414141414
 20
18.892388451443573
 30
0.0
 11
9.01641414141414
 21
21.004341313396434
 31
0.0
  0
ARC
  5
46
330
17
100
AcDbEntity
  8
DOORS
100
AcDbCircle
 10
20.144781144781142
 20
19.612860892388454
 30
0.0
 40
2.1119528619528616
100
AcDbArc
 50
0.0
 51
90.0
  0
LINE
  5
47
330
17
100
AcDbEntity
  8
DOORS
100
AcDbLine
 10
20.144781144781142
 20
19.612860892388454
 30
0.0
 11
22.256734006734003
 21
19.612860892388454
 31
0.0
  0
ARC
  5
48
330
17
100
AcDbEntity
  8
DOORS
100
AcDbCircle
 10
18.763888888888886
 20
18.892388451443573
 30
0.0
 40
1.9494949494949494
100
AcDbArc
 50
90.0
 51
180.0
  0
LINE
  5
49
330
17
100
AcDbEntity
  8
DOORS
100
AcDbLine
 10
18.763888888888886
 20
18.892388451443573
 30
0.0
 11
18.763888888888886
 21
20.84188340093852
 31
0.0
  0
LINE
  5
4A
330
17
100
AcDbEntity
  8
WINDOWS
100
AcDbLine
 10
0.04873737373737327
 20
7.28477690288714
 30
0.0
 11
0.04873737373737327
 21
4.242782152230971
 31
0.0
  0
LINE
  5
4B
330
17
100
AcDbEntity
  8
WINDOWS
100
AcDbLine
 10
0.24368686868686867
 20
7.28477690288714
 30
0.0
 11
0.24368686868686867
 21
4.242782152230971
 31
0.0
  0
LINE
  5
4C
330
17
100
AcDbEntity
  8
WINDOWS
100
AcDbLine
 10
0.43863636363636405
 20
7.28477690288714
 30
0.0
 11
0.43863636363636405
 21
4.242782152230971
 31
0.0
  0
LINE
  5
4D
330
17
100
AcDbEntity
  8
WINDOWS
100
AcDbLine
 10
0.04873737373737327
 20
17.211286089238847
 30
0.0
 11
0.04873737373737327
 21
14.009186351706038
 31
0.0
  0
LINE
  5
4E
330
17
100
AcDbEntity
  8
WINDOWS
100
AcDbLine
 10
0.24368686868686867
 20
17.211286089238847
 30
0.0
 11
0.24368686868686867
 21
14.009186351706038
 31
0.0
  0
LINE
  5
4F
330
17
100
AcDbEntity
  8
WINDOWS
100
AcDbLine
 10
0.43863636363636405
 20
17.211286089238847
 30
0.0
 11
0.43863636363636405
 21
14.009186351706038
 31
0.0
  0
LINE
  5
50
330
17
100
AcDbEntity
  8
WINDOWS
100
AcDbLine
 10
0.04873737373737327
 20
27.057742782152232
 30
0.0
 11
0.04873737373737327
 21
23.055118110236222
 31
0.0
  0
LINE
  5
51
330
17
100
AcDbEntity
  8
WINDOWS
100
AcDbLine
 10
0.24368686868686867
 20
27.057742782152232
 30
0.0
 11
0.24368686868686867
 21
23.055118110236222
 31
0.0
  0
LINE
  5
52
330
17
100
AcDbEntity
  8
WINDOWS
100
AcDbLine
 10
0.43863636363636405
 20
27.057742782152232
 30
0.0
 11
0.43863636363636405
 21
23.055118110236222
 31
0.0
  0
LINE
  5
53
330
17
100
AcDbEntity
  8
WINDOWS
100
AcDbLine
 10
31.7280303030303
 20
11.60761154855643
 30
0.0
 11
31.7280303030303
 21
6.244094488188977
 31
0.0
  0
LINE
  5
54
330
17
100
AcDbEntity
  8
WINDOWS
100
AcDbLine
 10
31.922979797979796
 20
11.60761154855643
 30
0.0
 11
31.922979797979796
 21
6.244094488188977
 31
0.0
  0
LINE
  5
55
330
17
100
AcDbEntity
  8
WINDOWS
100
AcDbLine
 10
32.11792929292929
 20
11.60761154855643
 30
0.0
 11
32.11792929292929
 21
6.244094488188977
 31
0.0
  0
LINE
  5
56
330
17
100
AcDbEntity
  8
WINDOWS
100
AcDbLine
 10
31.7280303030303
 20
27.057742782152232
 30
0.0
 11
31.7280303030303
 21
21.45406824146982
 31
0.0
  0
LINE
  5
57
330
17
100
AcDbEntity
  8
WINDOWS
100
AcDbLine
 10
31.922979797979796
 20
27.057742782152232
 30
0.0
 11
31.922979797979796
 21
21.45406824146982
 31
0.0
  0
LINE
  5
58
330
17
100
AcDbEntity
  8
WINDOWS
100
AcDbLine
 10
32.11792929292929
 20
27.057742782152232
 30
0.0
 11
32.11792929292929
 21
21.45406824146982
 31
0.0
  0
LWPOLYLINE
  5
59
330
17
100
AcDbEntity
  8
CASEWORK
100
AcDbPolyline
 90
6
 70
1
 10
0.6498316498316498
 20
10.006561679790027
 10
0.6498316498316498
 20
0.5603674540682415
 10
5.9297138047138045
 20
0.5603674540682415
 10
5.9297138047138045
 20
2.161417322834646
 10
2.274410774410774
 20
2.161417322834646
 10
2.274410774410774
 20
10.006561679790027
  0
LWPOLYLINE
  5
5A
330
17
100
AcDbEntity
  8
FIXTURES
100
AcDbPolyline
 90
4
 70
1
 10
0.731060606060606
 20
11.60761154855643
 10
2.8430134680134675
 20
11.60761154855643
 10
2.8430134680134675
 20
10.006561679790027
 10
0.731060606060606
 20
10.006561679790027
  0
LWPOLYLINE
  5
5B
330
17
100
AcDbEntity
  8
FIXTURES
100
AcDbPolyline
 90
4
 70
1
 10
0.8122895622895622
 20
7.044619422572179
 10
2.1119528619528616
 20
7.044619422572179
 10
2.1119528619528616
 20
5.683727034120736
 10
0.8122895622895622
 20
5.683727034120736
  0
LWPOLYLINE
  5
5C
330
17
100
AcDbEntity
  8
FIXTURES
100
AcDbPolyline
 90
4
 70
1
 10
0.9747474747474747
 20
6.884514435695539
 10
1.9494949494949494
 20
6.884514435695539
 10
1.9494949494949494
 20
5.843832020997375
 10
0.9747474747474747
 20
5.843832020997375
  0
LWPOLYLINE
  5
5D
330
17
100
AcDbEntity
  8
FIXTURES
100
AcDbPolyline
 90
4
 70
1
 10
3.0867003367003365
 20
1.841207349081365
 10
5.279882154882154
 20
1.841207349081365
 10
5.279882154882154
 20
0.7204724409448819
 10
3.0867003367003365
 20
0.7204724409448819
  0
LWPOLYLINE
  5
5E
330
17
100
AcDbEntity
  8
FIXTURES
100
AcDbPolyline
 90
4
 70
1
 10
11.615740740740739
 20
29.859580052493442
 10
17.707912457912457
 20
29.859580052493442
 10
17.707912457912457
 20
27.618110236220474
 10
11.615740740740739
 20
27.618110236220474
  0
LWPOLYLINE
  5
5F
330
17
100
AcDbEntity
  8
FIXTURES
100
AcDbPolyline
 90
4
 70
1
 10
11.859427609427609
 20
29.61942257217848
 10
17.464225589225588
 20
29.61942257217848
 10
17.464225589225588
 20
27.858267716535437
 10
11.859427609427609
 20
27.858267716535437
  0
LWPOLYLINE
  5
60
330
17
100
AcDbEntity
  8
FIXTURES
100
AcDbPolyline
 90
4
 70
1
 10
17.951599326599325
 20
25.45669291338583
 10
19.088804713804713
 20
25.45669291338583
 10
19.088804713804713
 20
24.896325459317588
 10
17.951599326599325
 20
24.896325459317588
  0
LWPOLYLINE
  5
61
330
17
100
AcDbEntity
  8
FIXTURES
100
AcDbPolyline
 90
6
 70
1
 10
18.03282828282828
 20
24.896325459317588
 10
19.007575757575754
 20
24.896325459317588
 10
19.088804713804713
 20
24.335958005249346
 10
18.9263468013468
 20
23.855643044619423
 10
18.11405723905724
 20
23.855643044619423
 10
17.951599326599325
 20
24.335958005249346
  0
LWPOLYLINE
  5
62
330
17
100
AcDbEntity
  8
FIXTURES
100
AcDbPolyline
 90
4
 70
1
 10
12.02188552188552
 20
21.213910761154857
 10
16.489478114478114
 20
21.213910761154857
 10
16.489478114478114
 20
19.612860892388454
 10
12.02188552188552
 20
19.612860892388454
  0
CIRCLE
  5
63
330
17
100
AcDbEntity
  8
FIXTURES
100
AcDbCircle
 10
14.215067340067339
 20
20.413385826771655
 30
0.0
 40
0.5
  0
TEXT
  5
64
330
17
100
AcDbEntity
  8
TEXT
100
AcDbText
 10
3.4928451178451176
 20
5.443569553805775
 30
0.0
 40
0.4
  1
KITCHEN
100
AcDbText
  0
TEXT
  5
65
330
17
100
AcDbEntity
  8
TEXT
100
AcDbText
 10
3.0867003367003365
 20
4.242782152230971
 30
0.0
 40
0.3
  1
10'1" x 10'8"
100
AcDbText
  0
TEXT
  5
66
330
17
100
AcDbEntity
  8
TEXT
100
AcDbText
 10
14.052609427609426
 20
5.043307086614174
 30
0.0
 40
0.4
  1
FOYER
100
AcDbText
  0
TEXT
  5
67
330
17
100
AcDbEntity
  8
TEXT
100
AcDbText
 10
13.240319865319863
 20
3.8425196850393704
 30
0.0
 40
0.3
  1
8'8" x 18'1"
100
AcDbText
  0
TEXT
  5
68
330
17
100
AcDbEntity
  8
TEXT
100
AcDbText
 10
23.39393939393939
 20
9.446194225721786
 30
0.0
 40
0.4
  1
LIVING ROOM
100
AcDbText
  0
TEXT
  5
69
330
17
100
AcDbEntity
  8
TEXT
100
AcDbText
 10
23.63762626262626
 20
7.845144356955381
 30
0.0
 40
0.3
  1
11'7" x 15'7"
100
AcDbText
  0
TEXT
  5
6A
330
17
100
AcDbEntity
  8
TEXT
100
AcDbText
 10
3.898989898989899
 20
14.80971128608924
 30
0.0
 40
0.4
  1
TERRACE
100
AcDbText
  0
TEXT
  5
6B
330
17
100
AcDbEntity
  8
TEXT
100
AcDbText
 10
3.4928451178451176
 20
25.45669291338583
 30
0.0
 40
0.4
  1
BEDROOM
100
AcDbText
  0
TEXT
  5
6C
330
17
100
AcDbEntity
  8
TEXT
100
AcDbText
 10
3.0867003367003365
 20
24.095800524934386
 30
0.0
 40
0.3
  1
10'1" x 11'1"
100
AcDbText
  0
TEXT
  5
6D
330
17
100
AcDbEntity
  8
TEXT
100
AcDbText
 10
24.612373737373733
 20
25.45669291338583
 30
0.0
 40
0.4
  1
BEDROOM
100
AcDbText
  0
TEXT
  5
6E
330
17
100
AcDbEntity
  8
TEXT
100
AcDbText
 10
24.206228956228955
 20
24.095800524934386
 30
0.0
 40
0.3
  1
11'1" x 13'6"
100
AcDbText
  0
TEXT
  5
6F
330
17
100
AcDbEntity
  8
TEXT
100
AcDbText
 10
14.458754208754208
 20
25.85695538057743
 30
0.0
 40
0.4
  1
BATH
100
AcDbText
  0
ENDSEC
  0
SECTION
  2
OBJECTS
  0
DICTIONARY
  5
A
330
0
100
AcDbDictionary
281
1
  3
ACAD_COLOR
350
B
  3
ACAD_GROUP
350
C
  3
ACAD_LAYOUT
350
D
  3
ACAD_MATERIAL
350
E
  3
ACAD_MLEADERSTYLE
350
F
  3
ACAD_MLINESTYLE
350
10
  3
ACAD_PLOTSETTINGS
350
11
  3
ACAD_PLOTSTYLENAME
350
12
  3
ACAD_SCALELIST
350
14
  3
ACAD_TABLESTYLE
350
15
  3
ACAD_VISUALSTYLE
350
16
  3
EZDXF_META
350
2D
  0
DICTIONARY
  5
B
330
A
100
AcDbDictionary
281
1
  0
DICTIONARY
  5
C
330
A
100
AcDbDictionary
281
1
  0
DICTIONARY
  5
D
330
A
100
AcDbDictionary
281
1
  3
Model
350
1A
  3
Layout1
350
1E
  0
DICTIONARY
  5
E
330
A
100
AcDbDictionary
281
1
  3
ByBlock
350
1F
  3
ByLayer
350
20
  3
Global
350
21
  0
DICTIONARY
  5
F
330
A
100
AcDbDictionary
281
1
  3
Standard
350
2C
  0
DICTIONARY
  5
10
330
A
100
AcDbDictionary
281
1
  3
Standard
350
22
  0
DICTIONARY
  5
11
330
A
100
AcDbDictionary
281
1
  0
ACDBDICTIONARYWDFLT
  5
12
330
A
100
AcDbDictionary
281
1
  3
Normal
350
13
100
AcDbDictionaryWithDefault
340
13
  0
ACDBPLACEHOLDER
  5
13
330
12
  0
DICTIONARY
  5
14
330
A
100
AcDbDictionary
281
1
  0
DICTIONARY
  5
15
330
A
100
AcDbDictionary
281
1
  0
DICTIONARY
  5
16
330
A
100
AcDbDictionary
281
1
  0
LAYOUT
  5
1A
330
D
100
AcDbPlotSettings
  1

  4
A3
  6

 40
7.5
 41
20.0
 42
7.5
 43
20.0
 44
420.0
 45
297.0
 46
0.0
 47
0.0
 48
0.0
 49
0.0
140
0.0
141
0.0
142
1.0
143
1.0
 70
1024
 72
1
 73
0
 74
5
  7

 75
16
 76
0
 77
2
 78
300
147
1.0
148
0.0
149
0.0
100
AcDbLayout
  1
Model
 70
1
 71
0
 10
0.0
 20
0.0
 11
420.0
 21
297.0
 12
0.0
 22
0.0
 32
0.0
 14
1e+20
 24
1e+20
 34
1e+20
 15
-1e+20
 25
-1e+20
 35
-1e+20
146
0.0
 13
0.0
 23
0.0
 33
0.0
 16
1.0
 26
0.0
 36
0.0
 17
0.0
 27
1.0
 37
0.0
 76
1
330
17
  0
LAYOUT
  5
1E
330
D
100
AcDbPlotSettings
  1

  4
A3
  6

 40
7.5
 41
20.0
 42
7.5
 43
20.0
 44
420.0
 45
297.0
 46
0.0
 47
0.0
 48
0.0
 49
0.0
140
0.0
141
0.0
142
1.0
143
1.0
 70
0
 72
1
 73
0
 74
5
  7

 75
16
 76
0
 77
2
 78
300
147
1.0
148
0.0
149
0.0
100
AcDbLayout
  1
Layout1
 70
1
 71
1
 10
0.0
 20
0.0
 11
420.0
 21
297.0
 12
0.0
 22
0.0
 32
0.0
 14
1e+20
 24
1e+20
 34
1e+20
 15
-1e+20
 25
-1e+20
 35
-1e+20
146
0.0
 13
0.0
 23
0.0
 33
0.0
 16
1.0
 26
0.0
 36
0.0
 17
0.0
 27
1.0
 37
0.0
 76
1
330
1B
  0
MATERIAL
  5
1F
102
{ACAD_REACTORS
330
E
102
}
330
E
100
AcDbMaterial
  1
ByBlock
  2

 70
0
 40
1.0
 71
1
 41
1.0
 91
-1023410177
 42
1.0
 72
1
  3

 73
1
 74
1
 75
1
 44
0.5
 73
0
 45
1.0
 46
1.0
 77
1
  4

 78
1
 79
1
170
1
 48
1.0
171
1
  6

172
1
173
1
174
1
140
1.0
141
1.0
175
1
  7

176
1
177
1
178
1
143
1.0
179
1
  8

270
1
271
1
272
1
145
1.0
146
1.0
273
1
  9

274
1
275
1
276
1
 42
1.0
 72
1
  3

 73
1
 74
1
 75
1
 94
63
  0
MATERIAL
  5
20
102
{ACAD_REACTORS
330
E
102
}
330
E
100
AcDbMaterial
  1
ByLayer
  2

 70
0
 40
1.0
 71
1
 41
1.0
 91
-1023410177
 42
1.0
 72
1
  3

 73
1
 74
1
 75
1
 44
0.5
 73
0
 45
1.0
 46
1.0
 77
1
  4

 78
1
 79
1
170
1
 48
1.0
171
1
  6

172
1
173
1
174
1
140
1.0
141
1.0
175
1
  7

176
1
177
1
178
1
143
1.0
179
1
  8

270
1
271
1
272
1
145
1.0
146
1.0
273
1
  9

274
1
275
1
276
1
 42
1.0
 72
1
  3

 73
1
 74
1
 75
1
 94
63
  0
MATERIAL
  5
21
102
{ACAD_REACTORS
330
E
102
}
330
E
100
AcDbMaterial
  1
Global
  2

 70
0
 40
1.0
 71
1
 41
1.0
 91
-1023410177
 42
1.0
 72
1
  3

 73
1
 74
1
 75
1
 44
0.5
 73
0
 45
1.0
 46
1.0
 77
1
  4

 78
1
 79
1
170
1
 48
1.0
171
1
  6

172
1
173
1
174
1
140
1.0
141
1.0
175
1
  7

176
1
177
1
178
1
143
1.0
179
1
  8

270
1
271
1
272
1
145
1.0
146
1.0
273
1
  9

274
1
275
1
276
1
 42
1.0
 72
1
  3

 73
1
 74
1
 75
1
 94
63
  0
MLINESTYLE
  5
22
102
{ACAD_REACTORS
330
10
102
}
330
10
100
AcDbMlineStyle
  2
Standard
 70
0
  3

 62
256
 51
90.0
 52
90.0
 71
2
 49
0.5
 62
256
  6
BYLAYER
 49
-0.5
 62
256
  6
BYLAYER
  0
MLEADERSTYLE
  5
2C
102
{ACAD_REACTORS
330
F
102
}
330
F
100
AcDbMLeaderStyle
179
2
170
2
171
1
172
0
 90
2
 40
0.0
 41
0.0
173
1
 91
-1056964608
 92
-2
290
1
 42
2.0
291
1
 43
8.0
  3
Standard
 44
4.0
300

342
29
174
1
175
1
176
0
178
1
 93
-1056964608
 45
4.0
292
0
297
0
 46
4.0
 94
-1056964608
 47
1.0
 49
1.0
140
1.0
294
1
141
0.0
177
0
142
1.0
295
0
296
0
143
3.75
271
0
272
9
273
9
  0
DICTIONARY
  5
2D
330
A
100
AcDbDictionary
280
1
281
1
  3
CREATED_BY_EZDXF
350
2E
  3
WRITTEN_BY_EZDXF
350
72
  0
DICTIONARYVAR
  5
2E
330
2D
100
DictionaryVariables
280
0
  1
1.4.3 @ 2026-02-13T05:36:00.920442+00:00
  0
DICTIONARYVAR
  5
72
330
2D
100
DictionaryVariables
280
0
  1
1.4.3 @ 2026-02-13T05:36:00.931656+00:00
  0
ENDSEC
  0
EOF
