<svg width="21" height="20" viewBox="0 0 21 20" fill="none" xmlns="http://www.w3.org/2000/svg">
<path fill-rule="evenodd" clip-rule="evenodd" d="M14.3863 15.6522C14.7607 15.2533 15.0003 14.7469 15.0714 14.2045L19.1533 16.0184C19.3531 16.1074 19.572 16.1451 19.7901 16.128C20.0081 16.1109 20.2185 16.0396 20.4019 15.9205C20.5854 15.8014 20.7363 15.6384 20.8407 15.4462C20.9451 15.254 20.9999 15.0388 21 14.82V5.02617C20.9998 4.80761 20.945 4.59255 20.8407 4.40052C20.7363 4.20849 20.5856 4.04557 20.4023 3.92653C20.219 3.8075 20.0089 3.73613 19.791 3.7189C19.5731 3.70167 19.3544 3.73912 19.1546 3.82786L15.0714 5.64173C14.988 5.01053 14.6781 4.43116 14.1993 4.01151C13.7204 3.59186 13.1054 3.36053 12.4688 3.36061H5.607L6.54413 4.67311H12.4688C12.8168 4.67311 13.1507 4.81139 13.3968 5.05753C13.643 5.30367 13.7812 5.63751 13.7812 5.98561V13.8606C13.7815 14.1002 13.7161 14.3354 13.5922 14.5405L14.3863 15.6522ZM1.87425 4.90936C1.70079 5.03018 1.55912 5.19115 1.46131 5.37855C1.3635 5.56595 1.31244 5.77422 1.3125 5.98561V13.8606C1.3125 14.2087 1.45078 14.5425 1.69692 14.7887C1.94306 15.0348 2.2769 15.1731 2.625 15.1731H9.20588L10.143 16.4856H2.625C1.92881 16.4856 1.26113 16.209 0.768845 15.7168C0.276562 15.2245 0 14.5568 0 13.8606V5.98561C0 5.09967 0.438375 4.31611 1.11169 3.84098L1.87294 4.90936H1.87425ZM19.6875 14.8187L15.0938 12.7778V7.06842L19.6875 5.02617V14.82V14.8187ZM13.9033 19.4912L0.778313 1.11623L1.84669 0.35498L14.9717 18.73L13.9033 19.4912Z" fill="black"/>
</svg>
