<svg width="345" height="54" viewBox="0 0 345 54" fill="none" xmlns="http://www.w3.org/2000/svg">
<mask id="mask0_1225_254" style="mask-type:alpha" maskUnits="userSpaceOnUse" x="0" y="0" width="345" height="54">
<rect width="345" height="54" fill="#C4C4C4"/>
</mask>
<g mask="url(#mask0_1225_254)">
<rect width="345" height="54" fill="#FAFAFA"/>
<rect x="118" y="10" width="345" height="34" rx="5" fill="#F1F3F4"/>
<path fill-rule="evenodd" clip-rule="evenodd" d="M142.386 33.2972C142.761 32.8983 143 32.3919 143.071 31.8495L147.153 33.6634C147.353 33.7524 147.572 33.7901 147.79 33.773C148.008 33.7559 148.218 33.6846 148.402 33.5655C148.585 33.4464 148.736 33.2834 148.841 33.0912C148.945 32.899 149 32.6838 149 32.4651V22.6712C149 22.4526 148.945 22.2376 148.841 22.0455C148.736 21.8535 148.586 21.6906 148.402 21.5716C148.219 21.4525 148.009 21.3812 147.791 21.3639C147.573 21.3467 147.354 21.3841 147.155 21.4729L143.071 23.2867C142.988 22.6556 142.678 22.0762 142.199 21.6565C141.72 21.2369 141.105 21.0056 140.469 21.0056H133.607L134.544 22.3181H140.469C140.817 22.3181 141.151 22.4564 141.397 22.7025C141.643 22.9487 141.781 23.2825 141.781 23.6306V31.5056C141.781 31.7453 141.716 31.9804 141.592 32.1855L142.386 33.2972ZM129.874 22.5544C129.701 22.6752 129.559 22.8362 129.461 23.0236C129.363 23.211 129.312 23.4192 129.312 23.6306V31.5056C129.312 31.8537 129.451 32.1876 129.697 32.4337C129.943 32.6798 130.277 32.8181 130.625 32.8181H137.206L138.143 34.1306H130.625C129.929 34.1306 129.261 33.8541 128.769 33.3618C128.277 32.8695 128 32.2018 128 31.5056V23.6306C128 22.7447 128.438 21.9611 129.112 21.486L129.873 22.5544H129.874ZM147.688 32.4637L143.094 30.4228V24.7134L147.688 22.6712V32.4651V32.4637ZM141.903 37.1362L128.778 18.7612L129.847 18L142.972 36.375L141.903 37.1362Z" fill="black"/>
<path d="M162.91 22V31H161.826V22H162.91ZM162.652 27.5898L162.201 27.5723C162.205 27.1387 162.27 26.7383 162.395 26.3711C162.52 26 162.695 25.6777 162.922 25.4043C163.148 25.1309 163.418 24.9199 163.73 24.7715C164.047 24.6191 164.396 24.543 164.779 24.543C165.092 24.543 165.373 24.5859 165.623 24.6719C165.873 24.7539 166.086 24.8867 166.262 25.0703C166.441 25.2539 166.578 25.4922 166.672 25.7852C166.766 26.0742 166.812 26.4277 166.812 26.8457V31H165.723V26.834C165.723 26.502 165.674 26.2363 165.576 26.0371C165.479 25.834 165.336 25.6875 165.148 25.5977C164.961 25.5039 164.73 25.457 164.457 25.457C164.188 25.457 163.941 25.5137 163.719 25.627C163.5 25.7402 163.311 25.8965 163.15 26.0957C162.994 26.2949 162.871 26.5234 162.781 26.7812C162.695 27.0352 162.652 27.3047 162.652 27.5898ZM171.09 24.6602V25.4922H167.662V24.6602H171.09ZM168.822 23.1191H169.906V29.4297C169.906 29.6445 169.939 29.8066 170.006 29.916C170.072 30.0254 170.158 30.0977 170.264 30.1328C170.369 30.168 170.482 30.1855 170.604 30.1855C170.693 30.1855 170.787 30.1777 170.885 30.1621C170.986 30.1426 171.062 30.127 171.113 30.1152L171.119 31C171.033 31.0273 170.92 31.0527 170.779 31.0762C170.643 31.1035 170.477 31.1172 170.281 31.1172C170.016 31.1172 169.771 31.0645 169.549 30.959C169.326 30.8535 169.148 30.6777 169.016 30.4316C168.887 30.1816 168.822 29.8457 168.822 29.4238V23.1191ZM175.016 24.6602V25.4922H171.588V24.6602H175.016ZM172.748 23.1191H173.832V29.4297C173.832 29.6445 173.865 29.8066 173.932 29.916C173.998 30.0254 174.084 30.0977 174.189 30.1328C174.295 30.168 174.408 30.1855 174.529 30.1855C174.619 30.1855 174.713 30.1777 174.811 30.1621C174.912 30.1426 174.988 30.127 175.039 30.1152L175.045 31C174.959 31.0273 174.846 31.0527 174.705 31.0762C174.568 31.1035 174.402 31.1172 174.207 31.1172C173.941 31.1172 173.697 31.0645 173.475 30.959C173.252 30.8535 173.074 30.6777 172.941 30.4316C172.812 30.1816 172.748 29.8457 172.748 29.4238V23.1191ZM177.371 25.8789V33.4375H176.281V24.6602H177.277L177.371 25.8789ZM181.643 27.7773V27.9004C181.643 28.3613 181.588 28.7891 181.479 29.1836C181.369 29.5742 181.209 29.9141 180.998 30.2031C180.791 30.4922 180.535 30.7168 180.23 30.877C179.926 31.0371 179.576 31.1172 179.182 31.1172C178.779 31.1172 178.424 31.0508 178.115 30.918C177.807 30.7852 177.545 30.5918 177.33 30.3379C177.115 30.084 176.943 29.7793 176.814 29.4238C176.689 29.0684 176.604 28.668 176.557 28.2227V27.5664C176.604 27.0977 176.691 26.6777 176.82 26.3066C176.949 25.9355 177.119 25.6191 177.33 25.3574C177.545 25.0918 177.805 24.8906 178.109 24.7539C178.414 24.6133 178.766 24.543 179.164 24.543C179.562 24.543 179.916 24.6211 180.225 24.7773C180.533 24.9297 180.793 25.1484 181.004 25.4336C181.215 25.7188 181.373 26.0605 181.479 26.459C181.588 26.8535 181.643 27.293 181.643 27.7773ZM180.553 27.9004V27.7773C180.553 27.4609 180.52 27.1641 180.453 26.8867C180.387 26.6055 180.283 26.3594 180.143 26.1484C180.006 25.9336 179.83 25.7656 179.615 25.6445C179.4 25.5195 179.145 25.457 178.848 25.457C178.574 25.457 178.336 25.5039 178.133 25.5977C177.934 25.6914 177.764 25.8184 177.623 25.9785C177.482 26.1348 177.367 26.3145 177.277 26.5176C177.191 26.7168 177.127 26.9238 177.084 27.1387V28.6562C177.162 28.9297 177.271 29.1875 177.412 29.4297C177.553 29.668 177.74 29.8613 177.975 30.0098C178.209 30.1543 178.504 30.2266 178.859 30.2266C179.152 30.2266 179.404 30.166 179.615 30.0449C179.83 29.9199 180.006 29.75 180.143 29.5352C180.283 29.3203 180.387 29.0742 180.453 28.7969C180.52 28.5156 180.553 28.2168 180.553 27.9004ZM182.979 30.4258C182.979 30.2422 183.035 30.0879 183.148 29.9629C183.266 29.834 183.434 29.7695 183.652 29.7695C183.871 29.7695 184.037 29.834 184.15 29.9629C184.268 30.0879 184.326 30.2422 184.326 30.4258C184.326 30.6055 184.268 30.7578 184.15 30.8828C184.037 31.0078 183.871 31.0703 183.652 31.0703C183.434 31.0703 183.266 31.0078 183.148 30.8828C183.035 30.7578 182.979 30.6055 182.979 30.4258ZM182.984 25.252C182.984 25.0684 183.041 24.9141 183.154 24.7891C183.271 24.6602 183.439 24.5957 183.658 24.5957C183.877 24.5957 184.043 24.6602 184.156 24.7891C184.273 24.9141 184.332 25.0684 184.332 25.252C184.332 25.4316 184.273 25.584 184.156 25.709C184.043 25.834 183.877 25.8965 183.658 25.8965C183.439 25.8965 183.271 25.834 183.154 25.709C183.041 25.584 182.984 25.4316 182.984 25.252ZM189.705 22.4688L186.148 31.7324H185.217L188.779 22.4688H189.705ZM193.35 22.4688L189.793 31.7324H188.861L192.424 22.4688H193.35ZM196.139 29.875L197.768 24.6602H198.482L198.342 25.6973L196.684 31H195.986L196.139 29.875ZM195.043 24.6602L196.432 29.9336L196.531 31H195.799L193.959 24.6602H195.043ZM200.041 29.8926L201.365 24.6602H202.443L200.604 31H199.877L200.041 29.8926ZM198.641 24.6602L200.234 29.7871L200.416 31H199.725L198.02 25.6855L197.879 24.6602H198.641ZM205.162 29.875L206.791 24.6602H207.506L207.365 25.6973L205.707 31H205.01L205.162 29.875ZM204.066 24.6602L205.455 29.9336L205.555 31H204.822L202.982 24.6602H204.066ZM209.064 29.8926L210.389 24.6602H211.467L209.627 31H208.9L209.064 29.8926ZM207.664 24.6602L209.258 29.7871L209.439 31H208.748L207.043 25.6855L206.902 24.6602H207.664ZM214.186 29.875L215.814 24.6602H216.529L216.389 25.6973L214.73 31H214.033L214.186 29.875ZM213.09 24.6602L214.479 29.9336L214.578 31H213.846L212.006 24.6602H213.09ZM218.088 29.8926L219.412 24.6602H220.49L218.65 31H217.924L218.088 29.8926ZM216.688 24.6602L218.281 29.7871L218.463 31H217.771L216.066 25.6855L215.926 24.6602H216.688ZM220.895 30.4258C220.895 30.2422 220.951 30.0879 221.064 29.9629C221.182 29.834 221.35 29.7695 221.568 29.7695C221.787 29.7695 221.953 29.834 222.066 29.9629C222.184 30.0879 222.242 30.2422 222.242 30.4258C222.242 30.6055 222.184 30.7578 222.066 30.8828C221.953 31.0078 221.787 31.0703 221.568 31.0703C221.35 31.0703 221.182 31.0078 221.064 30.8828C220.951 30.7578 220.895 30.6055 220.895 30.4258ZM225.219 24.6602V31H224.129V24.6602H225.219ZM224.047 22.9785C224.047 22.8027 224.1 22.6543 224.205 22.5332C224.314 22.4121 224.475 22.3516 224.686 22.3516C224.893 22.3516 225.051 22.4121 225.16 22.5332C225.273 22.6543 225.33 22.8027 225.33 22.9785C225.33 23.1465 225.273 23.291 225.16 23.4121C225.051 23.5293 224.893 23.5879 224.686 23.5879C224.475 23.5879 224.314 23.5293 224.205 23.4121C224.1 23.291 224.047 23.1465 224.047 22.9785ZM228.043 25.6562V31H226.959V24.6602H228.014L228.043 25.6562ZM230.023 24.625L230.018 25.6328C229.928 25.6133 229.842 25.6016 229.76 25.5977C229.682 25.5898 229.592 25.5859 229.49 25.5859C229.24 25.5859 229.02 25.625 228.828 25.7031C228.637 25.7812 228.475 25.8906 228.342 26.0312C228.209 26.1719 228.104 26.3398 228.025 26.5352C227.951 26.7266 227.902 26.9375 227.879 27.168L227.574 27.3438C227.574 26.9609 227.611 26.6016 227.686 26.2656C227.764 25.9297 227.883 25.6328 228.043 25.375C228.203 25.1133 228.406 24.9102 228.652 24.7656C228.902 24.6172 229.199 24.543 229.543 24.543C229.621 24.543 229.711 24.5527 229.812 24.5723C229.914 24.5879 229.984 24.6055 230.023 24.625ZM230.621 27.9004V27.7656C230.621 27.3086 230.688 26.8848 230.82 26.4941C230.953 26.0996 231.145 25.7578 231.395 25.4688C231.645 25.1758 231.947 24.9492 232.303 24.7891C232.658 24.625 233.057 24.543 233.498 24.543C233.943 24.543 234.344 24.625 234.699 24.7891C235.059 24.9492 235.363 25.1758 235.613 25.4688C235.867 25.7578 236.061 26.0996 236.193 26.4941C236.326 26.8848 236.393 27.3086 236.393 27.7656V27.9004C236.393 28.3574 236.326 28.7812 236.193 29.1719C236.061 29.5625 235.867 29.9043 235.613 30.1973C235.363 30.4863 235.061 30.7129 234.705 30.877C234.354 31.0371 233.955 31.1172 233.51 31.1172C233.064 31.1172 232.664 31.0371 232.309 30.877C231.953 30.7129 231.648 30.4863 231.395 30.1973C231.145 29.9043 230.953 29.5625 230.82 29.1719C230.688 28.7812 230.621 28.3574 230.621 27.9004ZM231.705 27.7656V27.9004C231.705 28.2168 231.742 28.5156 231.816 28.7969C231.891 29.0742 232.002 29.3203 232.15 29.5352C232.303 29.75 232.492 29.9199 232.719 30.0449C232.945 30.166 233.209 30.2266 233.51 30.2266C233.807 30.2266 234.066 30.166 234.289 30.0449C234.516 29.9199 234.703 29.75 234.852 29.5352C235 29.3203 235.111 29.0742 235.186 28.7969C235.264 28.5156 235.303 28.2168 235.303 27.9004V27.7656C235.303 27.4531 235.264 27.1582 235.186 26.8809C235.111 26.5996 234.998 26.3516 234.846 26.1367C234.697 25.918 234.51 25.7461 234.283 25.6211C234.061 25.4961 233.799 25.4336 233.498 25.4336C233.201 25.4336 232.939 25.4961 232.713 25.6211C232.49 25.7461 232.303 25.918 232.15 26.1367C232.002 26.3516 231.891 26.5996 231.816 26.8809C231.742 27.1582 231.705 27.4531 231.705 27.7656ZM238.836 26.0137V31H237.752V24.6602H238.777L238.836 26.0137ZM238.578 27.5898L238.127 27.5723C238.131 27.1387 238.195 26.7383 238.32 26.3711C238.445 26 238.621 25.6777 238.848 25.4043C239.074 25.1309 239.344 24.9199 239.656 24.7715C239.973 24.6191 240.322 24.543 240.705 24.543C241.018 24.543 241.299 24.5859 241.549 24.6719C241.799 24.7539 242.012 24.8867 242.188 25.0703C242.367 25.2539 242.504 25.4922 242.598 25.7852C242.691 26.0742 242.738 26.4277 242.738 26.8457V31H241.648V26.834C241.648 26.502 241.6 26.2363 241.502 26.0371C241.404 25.834 241.262 25.6875 241.074 25.5977C240.887 25.5039 240.656 25.457 240.383 25.457C240.113 25.457 239.867 25.5137 239.645 25.627C239.426 25.7402 239.236 25.8965 239.076 26.0957C238.92 26.2949 238.797 26.5234 238.707 26.7812C238.621 27.0352 238.578 27.3047 238.578 27.5898ZM246.312 30.0215L248.047 24.6602H249.154L246.875 31H246.148L246.312 30.0215ZM244.865 24.6602L246.652 30.0508L246.775 31H246.049L243.752 24.6602H244.865ZM252.746 31.1172C252.305 31.1172 251.904 31.043 251.545 30.8945C251.189 30.7422 250.883 30.5293 250.625 30.2559C250.371 29.9824 250.176 29.6582 250.039 29.2832C249.902 28.9082 249.834 28.498 249.834 28.0527V27.8066C249.834 27.291 249.91 26.832 250.062 26.4297C250.215 26.0234 250.422 25.6797 250.684 25.3984C250.945 25.1172 251.242 24.9043 251.574 24.7598C251.906 24.6152 252.25 24.543 252.605 24.543C253.059 24.543 253.449 24.6211 253.777 24.7773C254.109 24.9336 254.381 25.1523 254.592 25.4336C254.803 25.7109 254.959 26.0391 255.061 26.418C255.162 26.793 255.213 27.2031 255.213 27.6484V28.1348H250.479V27.25H254.129V27.168C254.113 26.8867 254.055 26.6133 253.953 26.3477C253.855 26.082 253.699 25.8633 253.484 25.6914C253.27 25.5195 252.977 25.4336 252.605 25.4336C252.359 25.4336 252.133 25.4863 251.926 25.5918C251.719 25.6934 251.541 25.8457 251.393 26.0488C251.244 26.252 251.129 26.5 251.047 26.793C250.965 27.0859 250.924 27.4238 250.924 27.8066V28.0527C250.924 28.3535 250.965 28.6367 251.047 28.9023C251.133 29.1641 251.256 29.3945 251.416 29.5938C251.58 29.793 251.777 29.9492 252.008 30.0625C252.242 30.1758 252.508 30.2324 252.805 30.2324C253.188 30.2324 253.512 30.1543 253.777 29.998C254.043 29.8418 254.275 29.6328 254.475 29.3711L255.131 29.8926C254.994 30.0996 254.82 30.2969 254.609 30.4844C254.398 30.6719 254.139 30.8242 253.83 30.9414C253.525 31.0586 253.164 31.1172 252.746 31.1172ZM260.17 29.3184C260.17 29.1621 260.135 29.0176 260.064 28.8848C259.998 28.748 259.859 28.625 259.648 28.5156C259.441 28.4023 259.129 28.3047 258.711 28.2227C258.359 28.1484 258.041 28.0605 257.756 27.959C257.475 27.8574 257.234 27.7344 257.035 27.5898C256.84 27.4453 256.689 27.2754 256.584 27.0801C256.479 26.8848 256.426 26.6562 256.426 26.3945C256.426 26.1445 256.48 25.9082 256.59 25.6855C256.703 25.4629 256.861 25.2656 257.064 25.0938C257.271 24.9219 257.52 24.7871 257.809 24.6895C258.098 24.5918 258.42 24.543 258.775 24.543C259.283 24.543 259.717 24.6328 260.076 24.8125C260.436 24.9922 260.711 25.2324 260.902 25.5332C261.094 25.8301 261.189 26.1602 261.189 26.5234H260.105C260.105 26.3477 260.053 26.1777 259.947 26.0137C259.846 25.8457 259.695 25.707 259.496 25.5977C259.301 25.4883 259.061 25.4336 258.775 25.4336C258.475 25.4336 258.23 25.4805 258.043 25.5742C257.859 25.6641 257.725 25.7793 257.639 25.9199C257.557 26.0605 257.516 26.209 257.516 26.3652C257.516 26.4824 257.535 26.5879 257.574 26.6816C257.617 26.7715 257.691 26.8555 257.797 26.9336C257.902 27.0078 258.051 27.0781 258.242 27.1445C258.434 27.2109 258.678 27.2773 258.975 27.3438C259.494 27.4609 259.922 27.6016 260.258 27.7656C260.594 27.9297 260.844 28.1309 261.008 28.3691C261.172 28.6074 261.254 28.8965 261.254 29.2363C261.254 29.5137 261.195 29.7676 261.078 29.998C260.965 30.2285 260.799 30.4277 260.58 30.5957C260.365 30.7598 260.107 30.8887 259.807 30.9824C259.51 31.0723 259.176 31.1172 258.805 31.1172C258.246 31.1172 257.773 31.0176 257.387 30.8184C257 30.6191 256.707 30.3613 256.508 30.0449C256.309 29.7285 256.209 29.3945 256.209 29.043H257.299C257.314 29.3398 257.4 29.5762 257.557 29.752C257.713 29.9238 257.904 30.0469 258.131 30.1211C258.357 30.1914 258.582 30.2266 258.805 30.2266C259.102 30.2266 259.35 30.1875 259.549 30.1094C259.752 30.0312 259.906 29.9238 260.012 29.7871C260.117 29.6504 260.17 29.4941 260.17 29.3184ZM265.332 24.6602V25.4922H261.904V24.6602H265.332ZM263.064 23.1191H264.148V29.4297C264.148 29.6445 264.182 29.8066 264.248 29.916C264.314 30.0254 264.4 30.0977 264.506 30.1328C264.611 30.168 264.725 30.1855 264.846 30.1855C264.936 30.1855 265.029 30.1777 265.127 30.1621C265.229 30.1426 265.305 30.127 265.355 30.1152L265.361 31C265.275 31.0273 265.162 31.0527 265.021 31.0762C264.885 31.1035 264.719 31.1172 264.523 31.1172C264.258 31.1172 264.014 31.0645 263.791 30.959C263.568 30.8535 263.391 30.6777 263.258 30.4316C263.129 30.1816 263.064 29.8457 263.064 29.4238V23.1191ZM266.621 30.4258C266.621 30.2422 266.678 30.0879 266.791 29.9629C266.908 29.834 267.076 29.7695 267.295 29.7695C267.514 29.7695 267.68 29.834 267.793 29.9629C267.91 30.0879 267.969 30.2422 267.969 30.4258C267.969 30.6055 267.91 30.7578 267.793 30.8828C267.68 31.0078 267.514 31.0703 267.295 31.0703C267.076 31.0703 266.908 31.0078 266.791 30.8828C266.678 30.7578 266.621 30.6055 266.621 30.4258ZM272.305 30.2266C272.562 30.2266 272.801 30.1738 273.02 30.0684C273.238 29.9629 273.418 29.8184 273.559 29.6348C273.699 29.4473 273.779 29.2344 273.799 28.9961H274.83C274.811 29.3711 274.684 29.7207 274.449 30.0449C274.219 30.3652 273.916 30.625 273.541 30.8242C273.166 31.0195 272.754 31.1172 272.305 31.1172C271.828 31.1172 271.412 31.0332 271.057 30.8652C270.705 30.6973 270.412 30.4668 270.178 30.1738C269.947 29.8809 269.773 29.5449 269.656 29.166C269.543 28.7832 269.486 28.3789 269.486 27.9531V27.707C269.486 27.2812 269.543 26.8789 269.656 26.5C269.773 26.1172 269.947 25.7793 270.178 25.4863C270.412 25.1934 270.705 24.9629 271.057 24.7949C271.412 24.627 271.828 24.543 272.305 24.543C272.801 24.543 273.234 24.6445 273.605 24.8477C273.977 25.0469 274.268 25.3203 274.479 25.668C274.693 26.0117 274.811 26.4023 274.83 26.8398H273.799C273.779 26.5781 273.705 26.3418 273.576 26.1309C273.451 25.9199 273.279 25.752 273.061 25.627C272.846 25.498 272.594 25.4336 272.305 25.4336C271.973 25.4336 271.693 25.5 271.467 25.6328C271.244 25.7617 271.066 25.9375 270.934 26.1602C270.805 26.3789 270.711 26.623 270.652 26.8926C270.598 27.1582 270.57 27.4297 270.57 27.707V27.9531C270.57 28.2305 270.598 28.5039 270.652 28.7734C270.707 29.043 270.799 29.2871 270.928 29.5059C271.061 29.7246 271.238 29.9004 271.461 30.0332C271.688 30.1621 271.969 30.2266 272.305 30.2266ZM275.762 27.9004V27.7656C275.762 27.3086 275.828 26.8848 275.961 26.4941C276.094 26.0996 276.285 25.7578 276.535 25.4688C276.785 25.1758 277.088 24.9492 277.443 24.7891C277.799 24.625 278.197 24.543 278.639 24.543C279.084 24.543 279.484 24.625 279.84 24.7891C280.199 24.9492 280.504 25.1758 280.754 25.4688C281.008 25.7578 281.201 26.0996 281.334 26.4941C281.467 26.8848 281.533 27.3086 281.533 27.7656V27.9004C281.533 28.3574 281.467 28.7812 281.334 29.1719C281.201 29.5625 281.008 29.9043 280.754 30.1973C280.504 30.4863 280.201 30.7129 279.846 30.877C279.494 31.0371 279.096 31.1172 278.65 31.1172C278.205 31.1172 277.805 31.0371 277.449 30.877C277.094 30.7129 276.789 30.4863 276.535 30.1973C276.285 29.9043 276.094 29.5625 275.961 29.1719C275.828 28.7812 275.762 28.3574 275.762 27.9004ZM276.846 27.7656V27.9004C276.846 28.2168 276.883 28.5156 276.957 28.7969C277.031 29.0742 277.143 29.3203 277.291 29.5352C277.443 29.75 277.633 29.9199 277.859 30.0449C278.086 30.166 278.35 30.2266 278.65 30.2266C278.947 30.2266 279.207 30.166 279.43 30.0449C279.656 29.9199 279.844 29.75 279.992 29.5352C280.141 29.3203 280.252 29.0742 280.326 28.7969C280.404 28.5156 280.443 28.2168 280.443 27.9004V27.7656C280.443 27.4531 280.404 27.1582 280.326 26.8809C280.252 26.5996 280.139 26.3516 279.986 26.1367C279.838 25.918 279.65 25.7461 279.424 25.6211C279.201 25.4961 278.939 25.4336 278.639 25.4336C278.342 25.4336 278.08 25.4961 277.854 25.6211C277.631 25.7461 277.443 25.918 277.291 26.1367C277.143 26.3516 277.031 26.5996 276.957 26.8809C276.883 27.1582 276.846 27.4531 276.846 27.7656ZM283.971 25.9199V31H282.881V24.6602H283.912L283.971 25.9199ZM283.748 27.5898L283.244 27.5723C283.248 27.1387 283.305 26.7383 283.414 26.3711C283.523 26 283.686 25.6777 283.9 25.4043C284.115 25.1309 284.383 24.9199 284.703 24.7715C285.023 24.6191 285.395 24.543 285.816 24.543C286.113 24.543 286.387 24.5859 286.637 24.6719C286.887 24.7539 287.104 24.8848 287.287 25.0645C287.471 25.2441 287.613 25.4746 287.715 25.7559C287.816 26.0371 287.867 26.377 287.867 26.7754V31H286.783V26.8281C286.783 26.4961 286.727 26.2305 286.613 26.0312C286.504 25.832 286.348 25.6875 286.145 25.5977C285.941 25.5039 285.703 25.457 285.43 25.457C285.109 25.457 284.842 25.5137 284.627 25.627C284.412 25.7402 284.24 25.8965 284.111 26.0957C283.982 26.2949 283.889 26.5234 283.83 26.7812C283.775 27.0352 283.748 27.3047 283.748 27.5898ZM287.855 26.9922L287.129 27.2148C287.133 26.8672 287.189 26.5332 287.299 26.2129C287.412 25.8926 287.574 25.6074 287.785 25.3574C288 25.1074 288.264 24.9102 288.576 24.7656C288.889 24.6172 289.246 24.543 289.648 24.543C289.988 24.543 290.289 24.5879 290.551 24.6777C290.816 24.7676 291.039 24.9062 291.219 25.0938C291.402 25.2773 291.541 25.5137 291.635 25.8027C291.729 26.0918 291.775 26.4355 291.775 26.834V31H290.686V26.8223C290.686 26.4668 290.629 26.1914 290.516 25.9961C290.406 25.7969 290.25 25.6582 290.047 25.5801C289.848 25.498 289.609 25.457 289.332 25.457C289.094 25.457 288.883 25.498 288.699 25.5801C288.516 25.6621 288.361 25.7754 288.236 25.9199C288.111 26.0605 288.016 26.2227 287.949 26.4062C287.887 26.5898 287.855 26.7852 287.855 26.9922ZM297.189 22.4688L293.633 31.7324H292.701L296.264 22.4688H297.189ZM302.111 29.916V26.6523C302.111 26.4023 302.061 26.1855 301.959 26.002C301.861 25.8145 301.713 25.6699 301.514 25.5684C301.314 25.4668 301.068 25.416 300.775 25.416C300.502 25.416 300.262 25.4629 300.055 25.5566C299.852 25.6504 299.691 25.7734 299.574 25.9258C299.461 26.0781 299.404 26.2422 299.404 26.418H298.32C298.32 26.1914 298.379 25.9668 298.496 25.7441C298.613 25.5215 298.781 25.3203 299 25.1406C299.223 24.957 299.488 24.8125 299.797 24.707C300.109 24.5977 300.457 24.543 300.84 24.543C301.301 24.543 301.707 24.6211 302.059 24.7773C302.414 24.9336 302.691 25.1699 302.891 25.4863C303.094 25.7988 303.195 26.1914 303.195 26.6641V29.6172C303.195 29.8281 303.213 30.0527 303.248 30.291C303.287 30.5293 303.344 30.7344 303.418 30.9062V31H302.287C302.232 30.875 302.189 30.709 302.158 30.502C302.127 30.291 302.111 30.0957 302.111 29.916ZM302.299 27.1562L302.311 27.918H301.215C300.906 27.918 300.631 27.9434 300.389 27.9941C300.146 28.041 299.943 28.1133 299.779 28.2109C299.615 28.3086 299.49 28.4316 299.404 28.5801C299.318 28.7246 299.275 28.8945 299.275 29.0898C299.275 29.2891 299.32 29.4707 299.41 29.6348C299.5 29.7988 299.635 29.9297 299.814 30.0273C299.998 30.1211 300.223 30.168 300.488 30.168C300.82 30.168 301.113 30.0977 301.367 29.957C301.621 29.8164 301.822 29.6445 301.971 29.4414C302.123 29.2383 302.205 29.041 302.217 28.8496L302.68 29.3711C302.652 29.5352 302.578 29.7168 302.457 29.916C302.336 30.1152 302.174 30.3066 301.971 30.4902C301.771 30.6699 301.533 30.8203 301.256 30.9414C300.982 31.0586 300.674 31.1172 300.33 31.1172C299.9 31.1172 299.523 31.0332 299.199 30.8652C298.879 30.6973 298.629 30.4727 298.449 30.1914C298.273 29.9062 298.186 29.5879 298.186 29.2363C298.186 28.8965 298.252 28.5977 298.385 28.3398C298.518 28.0781 298.709 27.8613 298.959 27.6895C299.209 27.5137 299.51 27.3809 299.861 27.291C300.213 27.2012 300.605 27.1562 301.039 27.1562H302.299ZM305.984 25.8789V33.4375H304.895V24.6602H305.891L305.984 25.8789ZM310.256 27.7773V27.9004C310.256 28.3613 310.201 28.7891 310.092 29.1836C309.982 29.5742 309.822 29.9141 309.611 30.2031C309.404 30.4922 309.148 30.7168 308.844 30.877C308.539 31.0371 308.189 31.1172 307.795 31.1172C307.393 31.1172 307.037 31.0508 306.729 30.918C306.42 30.7852 306.158 30.5918 305.943 30.3379C305.729 30.084 305.557 29.7793 305.428 29.4238C305.303 29.0684 305.217 28.668 305.17 28.2227V27.5664C305.217 27.0977 305.305 26.6777 305.434 26.3066C305.562 25.9355 305.732 25.6191 305.943 25.3574C306.158 25.0918 306.418 24.8906 306.723 24.7539C307.027 24.6133 307.379 24.543 307.777 24.543C308.176 24.543 308.529 24.6211 308.838 24.7773C309.146 24.9297 309.406 25.1484 309.617 25.4336C309.828 25.7188 309.986 26.0605 310.092 26.459C310.201 26.8535 310.256 27.293 310.256 27.7773ZM309.166 27.9004V27.7773C309.166 27.4609 309.133 27.1641 309.066 26.8867C309 26.6055 308.896 26.3594 308.756 26.1484C308.619 25.9336 308.443 25.7656 308.229 25.6445C308.014 25.5195 307.758 25.457 307.461 25.457C307.188 25.457 306.949 25.5039 306.746 25.5977C306.547 25.6914 306.377 25.8184 306.236 25.9785C306.096 26.1348 305.98 26.3145 305.891 26.5176C305.805 26.7168 305.74 26.9238 305.697 27.1387V28.6562C305.775 28.9297 305.885 29.1875 306.025 29.4297C306.166 29.668 306.354 29.8613 306.588 30.0098C306.822 30.1543 307.117 30.2266 307.473 30.2266C307.766 30.2266 308.018 30.166 308.229 30.0449C308.443 29.9199 308.619 29.75 308.756 29.5352C308.896 29.3203 309 29.0742 309.066 28.7969C309.133 28.5156 309.166 28.2168 309.166 27.9004ZM312.723 25.8789V33.4375H311.633V24.6602H312.629L312.723 25.8789ZM316.994 27.7773V27.9004C316.994 28.3613 316.939 28.7891 316.83 29.1836C316.721 29.5742 316.561 29.9141 316.35 30.2031C316.143 30.4922 315.887 30.7168 315.582 30.877C315.277 31.0371 314.928 31.1172 314.533 31.1172C314.131 31.1172 313.775 31.0508 313.467 30.918C313.158 30.7852 312.896 30.5918 312.682 30.3379C312.467 30.084 312.295 29.7793 312.166 29.4238C312.041 29.0684 311.955 28.668 311.908 28.2227V27.5664C311.955 27.0977 312.043 26.6777 312.172 26.3066C312.301 25.9355 312.471 25.6191 312.682 25.3574C312.896 25.0918 313.156 24.8906 313.461 24.7539C313.766 24.6133 314.117 24.543 314.516 24.543C314.914 24.543 315.268 24.6211 315.576 24.7773C315.885 24.9297 316.145 25.1484 316.355 25.4336C316.566 25.7188 316.725 26.0605 316.83 26.459C316.939 26.8535 316.994 27.293 316.994 27.7773ZM315.904 27.9004V27.7773C315.904 27.4609 315.871 27.1641 315.805 26.8867C315.738 26.6055 315.635 26.3594 315.494 26.1484C315.357 25.9336 315.182 25.7656 314.967 25.6445C314.752 25.5195 314.496 25.457 314.199 25.457C313.926 25.457 313.688 25.5039 313.484 25.5977C313.285 25.6914 313.115 25.8184 312.975 25.9785C312.834 26.1348 312.719 26.3145 312.629 26.5176C312.543 26.7168 312.479 26.9238 312.436 27.1387V28.6562C312.514 28.9297 312.623 29.1875 312.764 29.4297C312.904 29.668 313.092 29.8613 313.326 30.0098C313.561 30.1543 313.855 30.2266 314.211 30.2266C314.504 30.2266 314.756 30.166 314.967 30.0449C315.182 29.9199 315.357 29.75 315.494 29.5352C315.635 29.3203 315.738 29.0742 315.805 28.7969C315.871 28.5156 315.904 28.2168 315.904 27.9004Z" fill="black"/>
<path d="M100.65 21.35C99.2001 19.9 97.21 19 94.9999 19C90.5797 19 86.9995 22.58 86.9995 27C86.9995 31.42 90.5797 35 94.9999 35C98.7301 35 101.84 32.45 102.73 29H100.65C99.8301 31.33 97.61 33 94.9999 33C91.6897 33 88.9996 30.31 88.9996 27C88.9996 23.69 91.6897 21 94.9999 21C96.66 21 98.1401 21.69 99.2201 22.78L96 26H103V19L100.65 21.35Z" fill="#9BA0A5"/>
<path d="M51 25.9899V28.0101H63.1218L57.566 33.5657L59.0004 35L67.0008 27L59.0004 19L57.566 20.4343L63.1218 25.9899H51Z" fill="#9BA0A5" fill-opacity="0.3"/>
<path d="M31.0003 25.9899V28.0101H18.8785L24.4343 33.5657L22.9999 35L14.9995 27L22.9999 19L24.4343 20.4343L18.8785 25.9899H31.0003Z" fill="#9BA0A5"/>
</g>
</svg>
