<svg width="19" height="19" viewBox="0 0 19 19" fill="none" xmlns="http://www.w3.org/2000/svg">
  <path
    d="M15.9955 8.51249H14.8334V6.61438C14.8334 5.95024 14.5708 5.31328 14.1031 4.84382C13.6355 4.37421 13.0012 4.11039 12.3398 4.11039H10.4434V3.03944C10.4434 2.23331 10.1246 1.46023 9.55689 0.890152C8.98931 0.320181 8.21952 0 7.41678 0C6.61645 0.00415084 5.85034 0.326201 5.28565 0.895722C4.72107 1.46511 4.40366 2.23573 4.40282 3.03944V4.10394H2.48718C1.82613 4.10652 1.19298 4.37217 0.726774 4.8428C0.260564 5.31342 -0.000837214 5.95049 2.01453e-06 6.61438V8.50604H1.12716C1.93005 8.50518 2.70042 8.82509 3.26829 9.39535C3.83601 9.96558 4.1547 10.7391 4.15386 11.5455C4.15471 12.3519 3.83601 13.1256 3.26829 13.6957C2.70046 14.2659 1.93005 14.5858 1.12716 14.585H2.01453e-06V16.5087C0.00427807 17.1693 0.267818 17.8015 0.733598 18.268C1.19926 18.7345 1.82937 18.9975 2.48718 19H4.34852V17.7881C4.34767 16.9817 4.66637 16.2082 5.23409 15.6379C5.80192 15.0677 6.57233 14.7478 7.37522 14.7486C8.17796 14.7486 8.94794 15.0688 9.51547 15.6388C10.083 16.2089 10.402 16.9819 10.402 17.7881V19H12.3177C12.9789 19 13.6131 18.7362 14.0808 18.2665C14.5484 17.7969 14.8111 17.1601 14.8111 16.496V14.5914H15.9733C16.7761 14.5914 17.5459 14.2712 18.1134 13.7013C18.6812 13.1311 19 12.3581 19 11.552C19 10.7497 18.6842 9.98009 18.1214 9.41067C17.5586 8.84128 16.7945 8.51835 15.9956 8.51249H15.9955Z"
    fill="#003049" />
</svg>
  