<svg width="24" height="24" viewBox="0 0 24 24" fill="none" xmlns="http://www.w3.org/2000/svg">
<rect x="0.5" y="5" width="22.5" height="14" rx="3" fill="#05CEB3"/>
<path d="M24 7.049C24 5.64359 22.8564 4.5 21.451 4.5H2.549C1.14359 4.5 0 5.64359 0 7.049V17.2271C0 18.6325 1.14359 19.7761 2.549 19.7761H21.451C22.8564 19.7761 24 18.6325 24 17.2271V7.049ZM22.9804 17.2271C22.9804 18.0704 22.2944 18.7565 21.451 18.7565H2.549C1.70564 18.7565 1.0196 18.0704 1.0196 17.2271V7.049C1.0196 6.20564 1.70564 5.5196 2.549 5.5196H21.451C22.2944 5.5196 22.9804 6.20564 22.9804 7.049V17.2271Z" fill="#003049"/>
<path d="M8.15008 6.7189C7.66526 6.7189 7.20684 6.82973 6.79406 7.02249C6.37077 6.82622 5.90945 6.71793 5.44023 6.71793C3.66689 6.71793 2.22461 8.16368 2.22461 9.94054C2.22461 11.7139 3.66689 13.1562 5.44023 13.1562C5.90909 13.1562 6.36934 13.0484 6.79156 12.8529C7.20496 13.0463 7.66424 13.1576 8.15008 13.1576C9.9249 13.1576 11.3692 11.7134 11.3692 9.93855C11.3692 8.16317 9.9249 6.7189 8.15008 6.7189ZM3.24421 9.94054C3.24421 8.72573 4.22945 7.73754 5.44023 7.73754C5.55601 7.73754 5.66908 7.74885 5.78078 7.76603C5.25461 8.33941 4.93043 9.10085 4.93043 9.93855C4.93043 10.7749 5.2539 11.5354 5.77889 12.1085C5.66786 12.1254 5.55534 12.1366 5.44023 12.1366C4.22945 12.1366 3.24421 11.1513 3.24421 9.94054ZM8.15008 12.138C6.9368 12.138 5.95003 11.1513 5.95003 9.93855C5.95003 8.72527 6.9368 7.7385 8.15008 7.7385C9.36284 7.7385 10.3496 8.72527 10.3496 9.93855C10.3496 11.1513 9.36284 12.138 8.15008 12.138ZM10.8594 15.5493H2.98335C2.70158 15.5493 2.47355 15.7773 2.47355 16.0591C2.47355 16.3409 2.70158 16.5689 2.98335 16.5689H10.8594C11.1411 16.5689 11.3692 16.3409 11.3692 16.0591C11.3692 15.7773 11.1411 15.5493 10.8594 15.5493ZM20.2314 13.0426H15.2186C14.9368 13.0426 14.7088 13.2707 14.7088 13.5524C14.7088 13.8342 14.9368 14.0622 15.2186 14.0622H20.2314C20.5132 14.0622 20.7412 13.8342 20.7412 13.5524C20.7412 13.2707 20.5132 13.0426 20.2314 13.0426ZM20.2314 15.5493H15.2186C14.9368 15.5493 14.7088 15.7773 14.7088 16.0591C14.7088 16.3409 14.9368 16.5689 15.2186 16.5689H20.2314C20.5132 16.5689 20.7412 16.3409 20.7412 16.0591C20.7412 15.7773 20.5132 15.5493 20.2314 15.5493Z" fill="#003049"/>
</svg>
