<svg width="15" height="16" viewBox="0 0 15 16" fill="none" xmlns="http://www.w3.org/2000/svg">
<path fill-rule="evenodd" clip-rule="evenodd" d="M11.9212 11.2465L14.7536 14.0706C14.9113 14.227 15 14.44 15 14.6621C15 14.8842 14.9113 15.0972 14.7536 15.2536C14.5972 15.4113 14.3842 15.5 14.1621 15.5C13.94 15.5 13.727 15.4113 13.5706 15.2536L10.7465 12.4212C9.58229 13.335 8.14459 13.8309 6.66452 13.829C2.98381 13.829 0 10.8452 0 7.16452C0 3.48381 2.98381 0.5 6.66452 0.5C10.3452 0.5 13.329 3.48381 13.329 7.16452C13.3309 8.64459 12.835 10.0823 11.9212 11.2465ZM6.66451 2.166C3.90398 2.166 1.66612 4.40386 1.66612 7.16439C1.66612 9.92493 3.90398 12.1628 6.66451 12.1628C9.42505 12.1628 11.6629 9.92493 11.6629 7.16439C11.6629 4.40386 9.42505 2.166 6.66451 2.166Z" fill="black"/>
</svg>
