<svg width="81" height="20" viewBox="0 0 81 20" fill="none" xmlns="http://www.w3.org/2000/svg">
  <path
    d="M27.9102 14.8954V4.88995H30.0829V14.8954H27.9102ZM80.3395 13.0373H80.8273V14.8954H79.8106C79.2485 14.8954 78.7601 14.7858 78.3456 14.5667C77.931 14.3475 77.6142 14.0309 77.395 13.6161C77.1758 13.2017 77.0662 12.7086 77.0662 12.1368V8.8493H75.6655V8.40621L78.7242 5.16154H79.1101V7.17688H80.8273V8.8493H79.153V11.8653C79.153 12.2368 79.2555 12.5252 79.4604 12.73C79.6653 12.935 79.9584 13.0373 80.3395 13.0373ZM71.9596 15.1098C70.2646 15.1098 68.7149 14.2013 68.7149 12.3511H70.7447C70.7764 13.1098 71.3437 13.3802 72.031 13.3802C72.231 13.3802 72.4122 13.3518 72.5741 13.2944C72.8792 13.1872 73.1316 12.95 73.1316 12.6084C73.1316 11.9874 72.1084 11.8597 71.645 11.7795C70.2395 11.566 68.8435 11.1294 68.8435 9.42112C68.8435 7.70737 70.4377 6.96253 71.9524 6.96253C73.5484 6.96253 75.0471 7.7737 75.0471 9.53538H73.0601C73.0601 8.92536 72.6743 8.62056 71.9024 8.62056C71.4236 8.62056 70.8732 8.79453 70.8732 9.3638C70.8732 9.71671 71.1815 9.875 71.4736 9.95716C72.0006 10.1047 72.5636 10.1791 73.1031 10.293C74.3499 10.555 75.1898 11.1839 75.1898 12.5084C75.1898 14.3379 73.5888 15.1098 71.9596 15.1098H71.9596ZM68.1472 11.0077C68.1472 11.2077 68.1329 11.4125 68.1043 11.6221H62.2724C62.441 12.6519 63.1074 13.2516 64.1592 13.2516C64.8272 13.2516 65.4455 12.9508 65.7887 12.3655H67.9899C67.4131 14.0576 65.9477 15.1098 64.1592 15.1098C61.8375 15.1098 60.157 13.336 60.157 11.0362C60.157 8.7559 61.8159 6.96253 64.1592 6.96253C66.4888 6.96253 68.1472 8.69824 68.1472 11.0077H68.1472ZM64.1592 8.73493C63.2144 8.73493 62.5568 9.28476 62.3297 10.1929H66.0604C65.7882 9.29663 65.1099 8.73493 64.1592 8.73493H64.1592ZM58.8858 4.88995H61.2442L57.4705 14.8954H55.4266L51.51 4.88995H53.8973L56.4272 11.9652L58.8859 4.88995H58.8858ZM49.5312 6.9911C51.4457 6.9911 52.3756 8.43548 52.3756 10.2215V14.8954H50.2886V10.5502C50.2886 9.39705 49.8408 8.82083 48.9451 8.82083C47.7498 8.82083 47.2155 9.73717 47.2155 10.8361V14.8954H45.1288V7.1769H46.558L46.9726 8.13477C47.5746 7.37099 48.576 6.99114 49.5312 6.99114L49.5312 6.9911ZM40.2505 15.1098C37.8851 15.1098 36.0768 13.4319 36.0768 11.0361C36.0768 8.63375 37.8792 6.96251 40.2505 6.96251C42.615 6.96251 44.4099 8.64507 44.4099 11.0361C44.4099 13.408 42.5961 15.1098 40.2505 15.1098ZM40.2505 13.1516C41.4878 13.1516 42.2945 12.2506 42.2945 11.0361C42.2945 9.81593 41.4842 8.92072 40.2434 8.92072C39.0026 8.92072 38.1923 9.81599 38.1923 11.0361C38.1923 12.2616 39.0066 13.1516 40.2505 13.1516ZM35.1166 7.13393H35.8028V9.1066H34.9022C34.3113 9.1066 33.8897 9.24471 33.6373 9.52094C33.3847 9.79735 33.2584 10.2501 33.2584 10.8791V14.8954H31.1717V7.17688H32.515L32.8869 8.12029C33.4108 7.46277 34.1542 7.13395 35.1166 7.13395L35.1166 7.13393Z"
    fill="#003049" />
  <path fill-rule="evenodd" clip-rule="evenodd"
    d="M17.1907 0.149406L0.687456 8.86621C-0.0936301 9.27869 -0.106453 10.1408 0.146247 10.619L4.73646 19.3096C5.06968 19.9406 5.85857 20.184 6.48936 19.8508L22.9926 11.134C23.7745 10.7211 23.7861 9.85864 23.5339 9.38125L18.9436 0.690635C18.6103 0.0598246 17.8216 -0.183794 17.1907 0.149406Z"
    fill="#00D2B2" />
  <path fill-rule="evenodd" clip-rule="evenodd"
    d="M6.48934 0.149406L22.9926 8.86621C23.7737 9.27869 23.7865 10.1408 23.5338 10.619L18.9436 19.3096C18.6104 19.9406 17.8215 20.184 17.1907 19.8508L0.687439 11.134C-0.0944079 10.7211 -0.106011 9.85864 0.14623 9.38125L4.73645 0.690635C5.06975 0.0598246 5.85845 -0.183794 6.48934 0.149406Z"
    fill="#003049" fill-opacity="0.74902" />
  <path fill-rule="evenodd" clip-rule="evenodd"
    d="M0.00531428 10.1216C0.00639454 10.1353 0.00781488 10.1488 0.00945527 10.1622C0.00781488 10.1487 0.00639454 10.1351 0.00531428 10.1216ZM11.8401 2.97546L0.687457 8.86621C0.134965 9.15802 -0.0330949 9.67484 0.00519425 10.1216C0.00575439 10.1278 0.00629452 10.1341 0.00695467 10.1403C0.00771486 10.1476 0.00847504 10.1549 0.00945527 10.1622C0.0526656 10.5294 0.248872 10.9024 0.687357 11.134L11.84 17.0246L22.9927 11.134C23.4739 10.8798 23.6634 10.4552 23.679 10.0549C23.6795 10.04 23.6798 10.025 23.6799 10.0102C23.6802 9.98662 23.6797 9.96307 23.6787 9.93971C23.6773 9.90598 23.6746 9.87205 23.6706 9.8381C23.6274 9.47077 23.4309 9.09759 22.9926 8.86613L11.8401 2.97548V2.97546Z"
    fill="#003049" />
</svg>
